<svg width="474" height="120" viewBox="0 0 474 120" fill="none" xmlns="http://www.w3.org/2000/svg">
  <g clip-path="url(#clip0_2358_78728)">
    <mask id="mask0_2358_78728" style="mask-type:luminance" maskUnits="userSpaceOnUse" x="0" y="0" width="474" height="118">
      <path d="M473.684 0H0V117.853H473.684V0Z" fill="white" />
    </mask>
    <g mask="url(#mask0_2358_78728)">
      <path d="M124.007 39.7235V42.3793C122.708 41.2943 121.368 40.754 119.981 40.754C118.452 40.754 117.171 41.3047 116.119 42.4002C115.068 43.4956 114.544 44.8235 114.544 46.3794C114.544 47.9356 115.068 49.249 116.119 50.3233C117.171 51.398 118.465 51.932 119.994 51.932C120.779 51.932 121.449 51.8022 122.005 51.5445C122.34 51.4027 122.66 51.2287 122.962 51.025C123.29 50.8093 123.638 50.5434 124.009 50.2374V52.9602C122.725 53.6849 121.374 54.0493 119.963 54.0493C117.839 54.0493 116.025 53.3079 114.525 51.8252C113.026 50.3423 112.284 48.5306 112.284 46.4173C112.284 44.5261 112.913 42.8401 114.161 41.3571C115.698 39.5454 117.692 38.6344 120.139 38.6344C121.472 38.6344 122.765 38.9988 124.007 39.7235ZM125.999 46.2645C125.987 45.2565 126.185 44.257 126.58 43.3295C126.975 42.4021 127.559 41.5671 128.294 40.8774C129.012 40.1505 129.871 39.5761 130.817 39.1892C131.763 38.8024 132.778 38.6107 133.8 38.6262C134.816 38.6126 135.823 38.8071 136.76 39.1981C137.698 39.589 138.545 40.1675 139.25 40.8986C140.772 42.4106 141.554 44.2494 141.554 46.3523C141.572 47.3682 141.378 48.3768 140.983 49.3131C140.588 50.2494 140.002 51.0929 139.262 51.7895C137.734 53.2554 135.876 54.0304 133.708 54.0304C131.79 54.0304 130.068 53.3666 128.541 52.0409C126.853 50.5706 126.019 48.6477 126.019 46.2664M128.277 46.2957C128.277 47.9401 128.834 49.2907 129.936 50.3486C131.038 51.4062 132.299 51.9361 133.733 51.9361C135.291 51.9361 136.609 51.3957 137.681 50.3192C138.756 49.2301 139.29 47.9022 139.29 46.3396C139.29 44.7544 138.762 43.4075 137.698 42.3563C136.651 41.2797 135.346 40.7435 133.792 40.7435C132.238 40.7435 130.944 41.2816 129.875 42.3563C128.811 43.418 128.277 44.731 128.277 46.2957ZM144.348 53.7604V37.9141L155.18 49.249V38.9277H157.429V54.6841L146.591 43.3804V53.7812L144.348 53.7604ZM169.393 41.1184L167.571 42.199C167.229 41.6085 166.909 41.2232 166.597 41.0473C166.278 40.8376 165.864 40.7394 165.357 40.7394C164.793 40.7202 164.241 40.9087 163.807 41.2693C163.611 41.4253 163.453 41.6243 163.347 41.851C163.24 42.0774 163.187 42.3256 163.191 42.5761C163.191 43.303 163.728 43.885 164.804 44.329L166.283 44.9574C167.491 45.4434 168.371 46.0381 168.932 46.742C169.493 47.4455 169.77 48.3064 169.77 49.3245C169.77 50.69 169.309 51.8375 168.404 52.711C167.483 53.6116 166.348 54.0597 164.984 54.0597C163.7 54.0597 162.638 53.6786 161.794 52.9122C160.967 52.1499 160.447 51.0752 160.244 49.6908L162.517 49.1881C162.622 50.0615 162.798 50.6647 163.057 50.9978C163.518 51.6408 164.192 51.9613 165.078 51.9613C165.778 51.9613 166.335 51.7267 166.821 51.2555C167.307 50.7841 167.512 50.1957 167.512 49.4792C167.512 49.1862 167.47 48.9222 167.393 48.6834C167.315 48.4447 167.183 48.2227 167.016 48.0196C166.848 47.8163 166.622 47.6277 166.356 47.4541C166.09 47.2801 165.769 47.1105 165.392 46.9513L163.96 46.3545C161.924 45.5167 160.908 44.2602 160.908 42.5846C160.908 41.4702 161.334 40.532 162.165 39.7864C162.996 39.0408 164.083 38.6492 165.348 38.6492C167.066 38.647 168.402 39.4807 169.366 41.1477M180.661 41.0347H174.708V44.6034H180.489V46.7104H174.708V51.6743H180.665V53.7812H172.463V38.9277H180.665L180.661 41.0347ZM183.608 38.9277H185.849V53.7812H183.608V38.9277ZM191.661 38.9277V51.6534H196.03V53.7604H189.42V38.9066L191.661 38.9277ZM204.24 53.7812V37.9141L215.076 49.249V38.9277H217.317V54.6841L206.481 43.3804V53.7812H204.24ZM229.722 50.1727H223.366L221.69 53.7812H219.274L226.629 37.9936L233.719 53.7812H231.268L229.704 50.1727H229.722ZM228.81 48.0654L226.604 43.0137L224.296 48.0654H228.81ZM238.863 41.0347V53.7812H236.622V41.0347H233.208V38.9277H242.272V41.0347H238.863ZM244.275 38.9277H246.516V53.7812H244.275V38.9277ZM249.343 46.2853C249.343 44.191 250.11 42.4002 251.647 40.8986C252.365 40.1704 253.223 39.5953 254.169 39.2085C255.116 38.8213 256.131 38.6306 257.153 38.647C258.168 38.6353 259.174 38.8308 260.11 39.2217C261.047 39.6124 261.893 40.19 262.599 40.9194C263.333 41.6233 263.915 42.4706 264.307 43.4088C264.7 44.3473 264.895 45.3563 264.882 46.3734C264.882 48.5097 264.119 50.3233 262.592 51.8104C261.066 53.2974 259.21 54.0515 257.042 54.0515C255.124 54.0515 253.398 53.3874 251.869 52.0617C250.189 50.5914 249.343 48.6667 249.343 46.2853ZM251.607 46.3166C251.607 47.9609 252.16 49.3119 253.283 50.3694C254.405 51.427 255.649 51.9569 257.086 51.9569C257.819 51.9727 258.548 51.8372 259.226 51.559C259.905 51.2808 260.519 50.8659 261.03 50.3401C262.077 49.2509 262.638 47.923 262.638 46.3608C262.638 44.7752 262.109 43.4287 261.051 42.3771C260.544 41.8567 259.936 41.4452 259.264 41.168C258.593 40.8907 257.871 40.7533 257.145 40.7644C256.416 40.7495 255.691 40.885 255.017 41.1629C254.343 41.4408 253.733 41.8548 253.226 42.3793C252.179 43.441 251.626 44.7563 251.626 46.321M267.696 53.7812V37.9141L278.535 49.249V38.9277H280.776V54.6841L269.935 43.3804V53.7812H267.696ZM293.202 50.1727H286.842L285.166 53.7812H282.751L290.111 37.9936L297.2 53.7812H294.75L293.185 50.1727H293.202ZM292.289 48.0654L290.084 43.0137L287.776 48.0654H292.289ZM301.295 38.9277V51.6534H305.662V53.7604H299.048V38.9066L301.295 38.9277ZM112.994 77.4231V62.5693H116.136C117.629 62.5693 118.808 62.7203 119.696 62.9884C120.64 63.2846 121.505 63.7883 122.229 64.4628C123.762 65.8599 124.532 67.6965 124.532 69.9711C124.532 72.2458 123.73 74.1035 122.132 75.5129C121.33 76.2209 120.492 76.711 119.613 76.9854C118.789 77.2617 117.623 77.3979 116.119 77.3979H113.036L112.994 77.4231ZM115.269 75.3203H116.274C117.284 75.3203 118.117 75.2154 118.788 75.002C119.457 74.7759 120.071 74.4121 120.591 73.9336C121.694 72.9285 122.266 71.6151 122.266 69.9964C122.266 68.3773 121.722 67.064 120.633 66.0316C119.648 65.1266 118.203 64.6763 116.289 64.6763H115.279V75.3162L115.269 75.3203ZM135.535 64.6763H129.574V68.2453H135.354V70.3523H129.574V75.3162H135.532V77.4209H127.333V62.5444H135.53L135.535 64.6763ZM146.88 64.7811L145.062 65.8599C144.72 65.269 144.4 64.8837 144.088 64.7079C143.77 64.4985 143.355 64.4 142.848 64.4C142.226 64.4 141.707 64.5759 141.298 64.9299C141.103 65.0868 140.946 65.2857 140.839 65.5122C140.732 65.7386 140.678 65.9865 140.68 66.2369C140.68 66.9635 141.221 67.5459 142.299 67.9876L143.78 68.6161C144.987 69.0976 145.868 69.6967 146.432 70.3962C146.985 71.1001 147.263 71.9587 147.263 72.9787C147.263 74.3442 146.811 75.4921 145.902 76.3652C145.45 76.8039 144.915 77.1487 144.33 77.3799C143.743 77.611 143.118 77.7237 142.488 77.7121C141.2 77.7121 140.132 77.3309 139.29 76.5686C138.462 75.8041 137.949 74.7297 137.74 73.3431L140.012 72.8448C140.113 73.718 140.295 74.3192 140.553 74.6521C141.013 75.295 141.69 75.6155 142.572 75.6155C142.895 75.625 143.217 75.5672 143.518 75.4463C143.818 75.325 144.09 75.1431 144.316 74.912C144.777 74.4427 145.008 73.85 145.008 73.1315C145.008 72.8385 144.966 72.5745 144.888 72.3357C144.805 72.0923 144.677 71.8668 144.509 71.6716C144.342 71.4708 144.117 71.2801 143.853 71.1064C143.547 70.9106 143.224 70.7416 142.888 70.6014L141.455 70.0046C139.424 69.1668 138.402 67.9103 138.402 66.2347C138.394 65.702 138.505 65.1743 138.726 64.6898C138.948 64.2054 139.275 63.7766 139.684 63.4343C140.534 62.6868 141.602 62.2993 142.867 62.2993C144.584 62.2993 145.921 63.1327 146.88 64.8001M156.054 77.444V62.5905H158.286C159.285 62.5905 160.071 62.6701 160.659 62.7999C161.219 62.9328 161.738 63.2003 162.171 63.5789C162.594 63.956 162.921 64.4271 163.164 64.9949C163.411 65.5381 163.539 66.128 163.541 66.7248C163.544 67.2392 163.437 67.7486 163.227 68.2182C163.016 68.6877 162.708 69.1071 162.322 69.4475C163.083 69.6983 163.739 70.1956 164.186 70.8613C164.649 71.5488 164.89 72.3616 164.877 73.1903C164.877 74.3505 164.469 75.3307 163.646 76.135C163.184 76.6077 162.614 76.9608 161.985 77.1632C161.306 77.3729 160.462 77.4417 159.472 77.4417H156.068L156.054 77.444ZM158.294 68.9678H158.998C159.83 68.9678 160.464 68.7856 160.831 68.413C161.197 68.0401 161.411 67.5016 161.411 66.7854C161.411 66.086 161.214 65.5561 160.818 65.1939C160.423 64.8313 159.84 64.6491 159.084 64.6491H158.294V68.9678ZM158.294 75.3392H159.681C160.695 75.3392 161.44 75.1381 161.914 74.7421C162.154 74.5441 162.347 74.294 162.476 74.0107C162.606 73.7271 162.669 73.418 162.661 73.1066C162.666 72.8009 162.604 72.4984 162.48 72.2192C162.355 71.9404 162.171 71.6919 161.941 71.4916C161.472 71.0603 160.632 70.8632 159.427 70.8632H158.29V75.3203L158.294 75.3392ZM176.216 73.8373H169.854L168.178 77.444H165.786L173.117 61.6583L180.211 77.444H177.754L176.196 73.8373H176.216ZM175.301 71.7304L173.098 66.6787L170.788 71.7304H175.301ZM187.122 71.1105L191.715 77.4399H188.978L184.726 71.3619H184.307V77.4399H182.081V62.5444H184.711C186.674 62.5444 188.094 62.9151 188.963 63.6544C189.926 64.4922 190.404 65.5393 190.404 66.9048C190.404 67.952 190.102 68.857 189.504 69.6149C188.904 70.3731 188.104 70.8569 187.12 71.0685M184.326 69.3657H185.038C187.166 69.3657 188.222 68.5554 188.222 66.9364C188.222 65.4136 187.187 64.6324 185.122 64.6324H184.326V69.3449V69.3657ZM198.987 71.0685L203.584 77.3979H200.862L196.599 71.341H196.195V77.419H193.954V62.5444H196.58C198.545 62.5444 199.963 62.9151 200.832 63.6544C201.796 64.4922 202.298 65.5393 202.298 66.9048C202.298 67.952 201.995 68.857 201.391 69.6149C200.796 70.3684 199.952 70.8838 199.01 71.0685M196.216 69.3657H196.928C199.056 69.3657 200.112 68.5554 200.112 66.9364C200.112 65.4136 199.081 64.6324 197.012 64.6324H196.216V69.3449V69.3657ZM214.019 64.6532H208.062V68.2223H213.847V70.3292H208.062V75.2931H214.019V77.3979H205.821V62.5444H214.019V64.6532ZM225.695 73.7934H219.328L217.669 77.4001H215.261L222.591 61.6144L229.685 77.4001H227.23L225.674 73.7934H225.695ZM224.773 71.6865L222.574 66.6348L220.262 71.6865H224.773ZM233.239 62.5422V71.4894C233.239 72.7463 233.444 73.7012 233.861 74.2917C234.483 75.1444 235.363 75.5486 236.492 75.5486C237.621 75.5486 238.502 75.1213 239.126 74.2917C239.545 73.7202 239.755 72.7839 239.755 71.4894V62.5444H241.996V72.1074C241.996 73.6741 241.506 74.9622 240.53 75.9736C240.012 76.5231 239.385 76.958 238.688 77.2504C237.992 77.5425 237.242 77.6855 236.488 77.6701C235.734 77.6859 234.985 77.5431 234.291 77.2513C233.596 76.9595 232.97 76.525 232.454 75.9759C231.475 74.9641 230.988 73.6718 230.988 72.1096V62.5444H233.233L233.239 62.5422ZM248.664 69.6361L244.58 62.5444H247.129L249.967 67.5771L252.95 62.5444H255.517L251.234 69.6361L255.731 77.4001H253.222L249.923 71.7136L246.539 77.4001H243.998L248.664 69.6361Z" fill="#1B1919" />
      <path d="M101.645 87.3433H305.52V88.4429H101.645V87.3433ZM101.645 28.5781H305.52V29.6756H101.645V28.5781Z" fill="#DAB53F" />
      <path d="M54.6685 0.144531V5.02453L100.04 31.2111V85.7162L52.8189 112.973L30.0484 99.8304H21.5933L52.8002 117.853L104.268 88.1582L104.273 28.769L54.6685 0.144531Z" fill="#DAB53F" />
      <path d="M43.356 5.73872C43.356 7.26069 42.7512 8.72037 41.675 9.79658C40.5988 10.8728 39.1392 11.4774 37.6171 11.4774C36.0953 11.4774 34.6354 10.8728 33.5592 9.79658C32.483 8.72037 31.8786 7.26069 31.8786 5.73872C31.8786 4.21671 32.483 2.75704 33.5592 1.68083C34.6354 0.604611 36.0953 0 37.6171 0C39.1392 0 40.5988 0.604611 41.675 1.68083C42.7512 2.75704 43.356 4.21671 43.356 5.73872ZM21.2849 96.3265V19.8802H32.5844V41.285H42.6376V19.9012H53.9472V96.3474L21.2849 96.3265Z" fill="#1B1919" />
      <path d="M16.3277 19.8494C14.7059 19.845 13.1519 19.1988 12.0051 18.0521C10.8584 16.9053 10.2122 15.3513 10.2078 13.7296C10.2111 12.1071 10.8568 10.552 12.0037 9.40433C13.1505 8.25666 14.7052 7.60989 16.3277 7.60547C17.9516 7.60768 19.5084 8.25347 20.6571 9.40136C21.8058 10.5493 22.4526 12.1057 22.4559 13.7296C22.4559 17.0806 19.7332 19.8494 16.3277 19.8494Z" fill="#B11730" />
      <path d="M16.3222 7.98741C17.8443 7.98741 19.3039 8.59202 20.3801 9.66823C21.4563 10.7444 22.061 12.2041 22.061 13.7261C22.061 15.2481 21.4563 16.7078 20.3801 17.784C19.3039 18.8602 17.8443 19.4648 16.3222 19.4648C14.8003 19.4648 13.3406 18.8602 12.2644 17.784C11.1882 16.7078 10.5836 15.2481 10.5836 13.7261C10.5836 12.2041 11.1882 10.7444 12.2644 9.66823C13.3406 8.59202 14.8003 7.98741 16.3222 7.98741ZM16.3222 7.21875C14.5976 7.22153 12.9445 7.90815 11.7254 9.12804C10.5063 10.3479 9.82073 12.0015 9.81909 13.7261C9.82184 15.45 10.5079 17.1025 11.7269 18.3215C12.9458 19.5405 14.5983 20.2265 16.3222 20.2293C19.9142 20.2293 22.8359 17.3118 22.8359 13.7261C22.8359 10.1405 19.9121 7.21875 16.3222 7.21875Z" fill="white" />
      <path d="M21.3673 107.046V85.6449H11.314V107.05H0V30.6035H32.6561V107.023L21.3673 107.046Z" fill="#B11730" />
    </g>
  </g>
  <defs>
    <clipPath id="clip0_2358_78728">
      <rect width="473.684" height="120" fill="white" />
    </clipPath>
  </defs>
</svg>
