<?xml version="1.0" encoding="UTF-8"?> <svg xmlns="http://www.w3.org/2000/svg" width="35" height="33" viewBox="0 0 35 33" fill="none"><path d="M24.62 17.4754C24.6472 15.3742 25.7832 13.386 27.5853 12.2854C26.4484 10.6725 24.5442 9.64985 22.5631 9.58827C20.45 9.36795 18.4015 10.8443 17.3248 10.8443C16.2272 10.8443 14.5693 9.61015 12.7841 9.64664C10.4571 9.72132 8.28777 11.0355 7.15564 13.0565C4.72203 17.242 6.53729 23.3933 8.86849 26.7766C10.0348 28.4333 11.398 30.2838 13.1816 30.2182C14.927 30.1463 15.5788 29.1126 17.6857 29.1126C19.7729 29.1126 20.3845 30.2182 22.2043 30.1765C24.0772 30.1463 25.2572 28.5124 26.3827 26.84C27.2207 25.6596 27.8655 24.3549 28.2933 22.9744C26.0924 22.0497 24.6225 19.8494 24.62 17.4754Z" fill="white"></path><path d="M21.1826 7.36327C22.2038 6.14551 22.7069 4.58029 22.585 3C21.0249 3.16278 19.5838 3.90347 18.5488 5.07451C17.5368 6.21868 17.0101 7.75636 17.1097 9.27625C18.6704 9.29221 20.2046 8.57159 21.1826 7.36327Z" fill="white"></path></svg> 