<?xml version="1.0" encoding="UTF-8"?> <svg xmlns="http://www.w3.org/2000/svg" width="18" height="18" viewBox="0 0 18 18" fill="none"> <path d="M6.75 12.75V14.25C6.75 14.4489 6.67098 14.6397 6.53033 14.7803C6.38968 14.921 6.19891 15 6 15C5.80109 15 5.61032 14.921 5.46967 14.7803C5.32902 14.6397 5.25 14.4489 5.25 14.25V12.75C5.25 12.5511 5.32902 12.3603 5.46967 12.2197C5.61032 12.079 5.80109 12 6 12C6.19891 12 6.38968 12.079 6.53033 12.2197C6.67098 12.3603 6.75 12.5511 6.75 12.75ZM12 10.5C11.8011 10.5 11.6103 10.579 11.4697 10.7197C11.329 10.8603 11.25 11.0511 11.25 11.25V14.25C11.25 14.4489 11.329 14.6397 11.4697 14.7803C11.6103 14.921 11.8011 15 12 15C12.1989 15 12.3897 14.921 12.5303 14.7803C12.671 14.6397 12.75 14.4489 12.75 14.25V11.25C12.75 11.0511 12.671 10.8603 12.5303 10.7197C12.3897 10.579 12.1989 10.5 12 10.5ZM9 8.25C8.80109 8.25 8.61032 8.32902 8.46967 8.46967C8.32902 8.61032 8.25 8.80109 8.25 9V14.25C8.25 14.4489 8.32902 14.6397 8.46967 14.7803C8.61032 14.921 8.80109 15 9 15C9.19891 15 9.38968 14.921 9.53033 14.7803C9.67098 14.6397 9.75 14.4489 9.75 14.25V9C9.75 8.80109 9.67098 8.61032 9.53033 8.46967C9.38968 8.32902 9.19891 8.25 9 8.25ZM16.5 7.86375V14.25C16.5 16.3177 14.8177 18 12.75 18H5.25C3.18225 18 1.5 16.3177 1.5 14.25V3.75C1.5 1.68225 3.18225 0 5.25 0H8.63625C10.038 0 11.3565 0.546 12.3488 1.5375L14.9618 4.152C15.451 4.63829 15.8389 5.21683 16.1029 5.8541C16.367 6.49137 16.5019 7.1747 16.5 7.8645V7.86375ZM11.2882 2.598C11.0534 2.36277 10.7883 2.15975 10.5 1.99425V5.25C10.5 5.66325 10.836 6 11.25 6H14.5057C14.3398 5.71224 14.1368 5.44748 13.902 5.2125L11.289 2.598H11.2882ZM15 7.86375C15 7.7415 14.994 7.62 14.9827 7.5H11.25C10.0095 7.5 9 6.4905 9 5.25V1.51725C8.87909 1.50584 8.7577 1.50008 8.63625 1.5H5.25C4.0095 1.5 3 2.5095 3 3.75V14.25C3 15.4905 4.0095 16.5 5.25 16.5H12.75C13.9905 16.5 15 15.4905 15 14.25V7.86375Z" fill="#414E5E"></path> </svg> 