<?xml version="1.0" encoding="UTF-8"?> <svg xmlns="http://www.w3.org/2000/svg" width="512" height="512" viewBox="0 0 512 512" fill="none"> <path d="M461.246 322.529C444.311 312.752 423.602 315.277 409.51 327.3L385.792 313.606C393.642 295.99 398.015 276.497 398.015 255.999C398.015 235.502 393.642 216.008 385.792 198.392L409.505 184.701C417.715 191.707 428.171 195.49 438.822 195.49C446.696 195.492 454.431 193.416 461.246 189.47C482.734 177.063 490.123 149.487 477.717 127.999C465.311 106.511 437.738 99.12 416.246 111.528C399.312 121.305 391.143 140.503 394.51 158.719L370.749 172.437C347.681 140.85 311.911 119.105 271.015 114.791V87.42C288.474 81.228 301.015 64.555 301.015 45C301.015 20.187 280.828 0 256.015 0C231.202 0 211.015 20.187 211.015 45C211.015 64.555 223.556 81.228 241.015 87.42V114.792C200.119 119.105 164.349 140.851 141.281 172.438L117.52 158.72C120.887 140.505 112.718 121.307 95.7828 111.529C74.2948 99.122 46.7178 106.511 34.3118 128C28.3018 138.41 26.7048 150.537 29.8158 162.147C32.9268 173.757 40.3728 183.461 50.7818 189.472C57.5959 193.418 65.3314 195.495 73.2058 195.492C83.8548 195.492 94.3118 191.709 102.522 184.703L126.235 198.394C118.385 216.01 114.012 235.503 114.012 256.001C114.012 276.499 118.384 295.992 126.235 313.608L102.52 327.3C88.4288 315.277 67.7198 312.752 50.7828 322.529C40.3738 328.539 32.9278 338.243 29.8168 349.854C26.7058 361.464 28.3028 373.591 34.3128 384C42.6388 398.421 57.7948 406.491 73.3588 406.491C81.2331 406.493 88.9684 404.417 95.7828 400.471C112.717 390.693 120.886 371.496 117.519 353.28L141.28 339.562C164.348 371.149 200.118 392.894 241.014 397.208V424.58C223.555 430.772 211.014 447.445 211.014 467C211.014 491.813 231.201 512 256.014 512C280.827 512 301.014 491.813 301.014 467C301.014 447.445 288.473 430.772 271.014 424.58V397.208C311.91 392.894 347.68 371.149 370.748 339.562L394.509 353.28C391.142 371.496 399.311 390.693 416.245 400.471C423.059 404.417 430.794 406.494 438.669 406.491C454.232 406.491 469.391 398.419 477.716 384C490.123 362.512 482.734 334.936 461.246 322.529ZM316.014 321H196.014V278.803C196.014 262.221 204.505 247.589 217.363 239.012C213.2 232.058 211.006 224.104 211.014 216C211.014 191.187 231.201 171 256.014 171C280.827 171 301.014 191.187 301.014 216C301.022 224.104 298.827 232.058 294.665 239.012C307.523 247.589 316.014 262.221 316.014 278.803V321Z" fill="white"></path> <path d="M268.212 261H243.818C234.001 261 226.015 268.986 226.015 278.803V291H286.015V278.803C286.014 268.986 278.028 261 268.212 261Z" fill="white"></path> <path d="M256.014 231C264.298 231 271.014 224.284 271.014 216C271.014 207.716 264.298 201 256.014 201C247.729 201 241.014 207.716 241.014 216C241.014 224.284 247.729 231 256.014 231Z" fill="white"></path> </svg> 