<?xml version="1.0" encoding="UTF-8"?> <svg xmlns="http://www.w3.org/2000/svg" width="19" height="19" viewBox="0 0 19 19" fill="none"> <g clip-path="url(#clip0_508_20155)"> <path d="M18.1466 1.34583C17.88 1.12236 17.5673 0.960515 17.231 0.871837C16.8946 0.783159 16.5428 0.769838 16.2007 0.832826L11.3082 1.72187C10.6081 1.8481 9.97099 2.2068 9.5 2.73995C9.02936 2.20592 8.39226 1.84636 7.69183 1.71949L2.79933 0.830451C2.45715 0.768314 2.1055 0.782086 1.76922 0.870792C1.43294 0.959498 1.12025 1.12097 0.853244 1.34381C0.586233 1.56665 0.37142 1.8454 0.223983 2.16038C0.0765467 2.47536 8.45067e-05 2.81888 0 3.16666L0 16.4936L9.5 18.2218L19 16.4936V3.16666C19 2.81913 18.9236 2.47586 18.7761 2.16118C18.6286 1.84651 18.4137 1.56814 18.1466 1.34583ZM8.70833 16.4667L1.58333 15.1731V3.16666C1.58343 3.05075 1.60898 2.93628 1.65818 2.83133C1.70737 2.72638 1.77901 2.63351 1.86803 2.55928C1.95706 2.48506 2.0613 2.43129 2.17338 2.40177C2.28547 2.37225 2.40267 2.3677 2.51671 2.38845L7.40842 3.27749C7.77324 3.34387 8.10319 3.53618 8.34074 3.8209C8.5783 4.10562 8.70839 4.46468 8.70833 4.83549V16.4667ZM17.4167 15.1715L10.2917 16.4667V4.83549C10.2916 4.46468 10.4217 4.10562 10.6593 3.8209C10.8968 3.53618 11.2268 3.34387 11.5916 3.27749L16.4833 2.38845C16.5973 2.3677 16.7145 2.37225 16.8266 2.40177C16.9387 2.43129 17.0429 2.48506 17.132 2.55928C17.221 2.63351 17.2926 2.72638 17.3418 2.83133C17.391 2.93628 17.4166 3.05075 17.4167 3.16666V15.1715Z" fill="#414E5E"></path> </g> <defs> <clipPath id="clip0_508_20155"> <rect width="19" height="19" fill="white"></rect> </clipPath> </defs> </svg> 