<?xml version="1.0" encoding="UTF-8"?> <svg xmlns="http://www.w3.org/2000/svg" width="24" height="18" viewBox="0 0 24 18" fill="none"> <path fill-rule="evenodd" clip-rule="evenodd" d="M4.5 18H0V0H4.5V2H2V16H4.5V18ZM19.5 2V0H24V18H19.5V16H22V2H19.5ZM15.6544 8.07974V13H17.5V7.81577C17.5 6.94073 17.2539 6.2539 16.7617 5.75527C16.2745 5.25176 15.5904 5 14.7094 5C14.296 5 13.8826 5.07822 13.4691 5.23465C13.0557 5.38619 12.7333 5.59151 12.502 5.8506C11.9705 5.28353 11.1805 5 10.1322 5C9.32013 5 8.65817 5.27864 8.14631 5.83593L7.7698 5.14665H6.5V13H8.34564V7.3538C8.46868 7.14849 8.66555 6.96028 8.93624 6.78918C9.21186 6.61809 9.46532 6.53254 9.69664 6.53254C10.1347 6.53254 10.4743 6.64742 10.7154 6.87718C10.9566 7.10205 11.0772 7.40758 11.0772 7.79377V13H12.9228V7.33181C13.0262 7.1216 13.2058 6.93584 13.4617 6.77452C13.7177 6.6132 13.9834 6.53254 14.2591 6.53254C15.1893 6.53254 15.6544 7.04827 15.6544 8.07974Z" fill="white"></path> </svg> 