<?xml version="1.0" encoding="UTF-8"?> <svg xmlns="http://www.w3.org/2000/svg" width="2556" height="332" viewBox="0 0 2556 332" fill="none"> <rect y="25" width="283.847" height="283.847" rx="86.6101" fill="white"></rect> <rect y="25" width="283.847" height="283.847" rx="86.6101" fill="url(#paint0_linear_56845_2993)"></rect> <rect y="25" width="283.847" height="283.847" rx="86.6101" fill="url(#paint1_linear_56845_2993)"></rect> <rect y="25" width="283.847" height="283.847" rx="86.6101" fill="url(#paint2_linear_56845_2993)"></rect> <path d="M142.305 67.2979C142.408 67.3732 142.527 67.4246 142.653 67.448C142.714 67.448 142.775 67.4762 142.84 67.4809C143.564 67.5559 144.265 67.7779 144.9 68.1332C145.097 68.2317 145.285 68.349 145.478 68.457L159.579 76.4346L176.069 85.7637C180.058 88.0162 184.044 90.2718 188.026 92.5305C188.275 92.6713 188.524 92.8027 188.763 92.9529C190.292 93.888 191.362 95.4188 191.715 97.1763C191.755 97.3616 191.778 97.5501 191.785 97.7395C191.785 98.1806 191.818 98.6217 191.818 99.0675V118.111C191.818 125.215 191.818 132.32 191.818 139.425C191.818 139.805 191.818 140.185 191.818 140.56C191.787 141.577 191.49 142.567 190.955 143.432C190.155 144.778 188.895 145.787 187.407 146.271C186.772 146.468 186.114 146.577 185.45 146.595C185.166 146.593 184.882 146.569 184.601 146.525C183.845 146.442 183.113 146.215 182.442 145.858C182.217 145.741 181.996 145.614 181.78 145.492L160.588 133.503L145.571 125.023L144.83 124.605C144.236 124.311 143.604 124.101 142.953 123.981C142.798 123.952 142.641 123.935 142.484 123.929C142.23 123.929 141.977 123.929 141.723 123.929C140.741 123.936 139.776 124.179 138.908 124.638C138.654 124.769 138.41 124.915 138.166 125.056C132.823 128.115 127.479 131.177 122.136 134.239L102.896 145.263C102.624 145.422 102.347 145.577 102.07 145.732C101.459 146.063 100.803 146.302 100.123 146.44C99.9987 146.466 99.8733 146.484 99.7471 146.492L98.8085 146.52C97.9194 146.522 97.042 146.316 96.2463 145.92C94.521 145.137 93.2378 143.621 92.7503 141.79C92.5992 141.273 92.5203 140.738 92.5156 140.199V99.0722C92.5156 98.8188 92.5156 98.5654 92.5156 98.3167C92.5326 97.5252 92.6915 96.7432 92.9849 96.0078C93.4788 94.7658 94.3504 93.7102 95.4767 92.9904C95.6879 92.8543 95.9131 92.7323 96.129 92.6056L107.471 86.1015L120.953 78.3773L134.586 70.5827L137.96 68.6494L138.701 68.2317C139.149 67.9875 139.621 67.7909 140.109 67.6451C140.418 67.5691 140.731 67.5143 141.048 67.4809C141.172 67.462 141.288 67.4064 141.381 67.3213L142.305 67.2979Z" fill="white"></path> <path d="M43.1367 183.074C43.3261 183.022 43.4628 182.857 43.4793 182.661C43.5281 182.286 43.6002 181.915 43.6952 181.549C44.1013 180.106 44.9995 178.851 46.2339 178.001C46.492 177.823 46.7689 177.663 47.0411 177.532L55.6569 172.558L74.8547 161.483L82.3209 157.17C82.593 157.015 82.8699 156.856 83.1515 156.701C83.9982 156.266 84.9356 156.038 85.8873 156.034C87.5823 156.014 89.2173 156.662 90.4392 157.837C91.2051 158.552 91.7753 159.452 92.0958 160.45C92.293 161.018 92.4006 161.614 92.4149 162.215C92.4149 162.562 92.4149 162.909 92.4149 163.257V203.328C92.4149 203.736 92.4149 204.149 92.4149 204.557C92.4543 206.647 93.5037 208.588 95.2305 209.766C95.5121 209.963 95.8218 210.132 96.1221 210.301L104.306 214.876L121.172 224.304L131.618 230.132C131.895 230.287 132.172 230.438 132.439 230.602C133.88 231.436 134.927 232.814 135.344 234.426C135.577 235.248 135.637 236.11 135.517 236.956C135.416 237.707 135.191 238.436 134.851 239.114C134.325 240.131 133.532 240.984 132.556 241.583C132.289 241.752 132.007 241.897 131.73 242.052L104.428 257.069L95.1319 262.17C94.8832 262.306 94.6627 262.451 94.3858 262.578C93.9645 262.796 93.5207 262.967 93.0625 263.089C92.4197 263.258 91.7554 263.329 91.0915 263.301C90.0122 263.248 88.9633 262.926 88.0413 262.362L85.1834 260.682L47.2194 238.363C46.9754 238.223 46.7501 238.082 46.4873 237.927C45.0245 237.021 43.9865 235.565 43.606 233.887C43.5356 233.61 43.5168 233.324 43.4652 233.047C43.4406 232.92 43.3517 232.815 43.2306 232.77C43.2016 232.758 43.1718 232.749 43.1414 232.742L43.1367 183.074Z" fill="white"></path> <path d="M191.026 263.616C190.956 263.554 190.879 263.502 190.796 263.461C190.557 263.377 190.314 263.307 190.068 263.25C189.482 263.117 188.918 262.901 188.393 262.607C188.088 262.438 187.792 262.26 187.492 262.086L173.465 253.991L152.705 242.02C152.484 241.893 152.264 241.771 152.053 241.635C150.617 240.739 149.602 239.303 149.237 237.651C149.134 237.221 149.082 236.78 149.082 236.337C149.005 234.175 150.044 232.125 151.832 230.908C152.093 230.737 152.362 230.58 152.639 230.438L164.474 223.653L180.429 214.516L187.91 210.232C188.238 210.044 188.571 209.861 188.89 209.659C190.11 208.904 191.041 207.762 191.537 206.416C191.709 205.974 191.824 205.512 191.88 205.041C191.936 204.54 191.964 204.035 191.964 203.53C191.964 201.728 191.964 199.931 191.964 198.129C191.964 186.635 191.964 175.143 191.964 163.652C191.964 163.333 191.964 163.018 191.964 162.713C191.964 162.408 191.964 162.206 191.992 161.958C192.073 160.454 192.706 159.033 193.771 157.969C194.572 157.152 195.579 156.566 196.685 156.275C197.171 156.134 197.672 156.054 198.177 156.035C199.224 156.018 200.259 156.255 201.195 156.725C201.448 156.852 201.697 156.993 201.941 157.138L211.458 162.624L228.196 172.286L236.972 177.35C237.249 177.509 237.521 177.664 237.793 177.819C238.907 178.497 239.785 179.501 240.308 180.696C240.408 180.895 240.473 181.109 240.501 181.329C240.537 181.481 240.606 181.624 240.703 181.747V234.056C240.595 234.126 240.525 234.239 240.51 234.366C240.475 234.618 240.399 234.862 240.285 235.089C239.775 236.218 238.944 237.172 237.896 237.834C237.634 238.008 237.357 238.163 237.084 238.303L224.184 245.699L195.427 262.194C195.183 262.335 194.958 262.48 194.686 262.612C194.163 262.906 193.601 263.123 193.015 263.254C192.799 263.303 192.586 263.366 192.377 263.442C192.289 263.474 192.214 263.535 192.166 263.616H191.026Z" fill="white"></path> <path d="M382.671 114.828H328.604V80.766H474.584V114.828H420.517V270H382.671V114.828ZM448.282 129.426H490.994L509.107 209.175C511.089 217.285 512.531 224.404 513.432 230.531C514.694 222.782 516.226 215.573 518.028 208.904L538.573 129.426H580.475L602.372 208.904C604.174 215.573 605.706 222.782 606.968 230.531C607.869 224.404 609.311 217.285 611.293 209.175L630.757 129.426H670.496L626.702 270H587.233L564.255 189.981C562.092 183.493 560.47 176.464 559.389 168.895C558.127 177.185 556.686 184.214 555.064 189.981L533.978 270H492.076L448.282 129.426ZM735.765 273.514C723.15 273.514 711.525 270.27 700.892 263.782C690.259 257.114 681.789 248.193 675.481 237.019C669.353 225.845 666.289 213.59 666.289 200.254C666.289 186.917 669.353 174.662 675.481 163.488C681.789 152.134 690.259 143.123 700.892 136.455C711.525 129.787 723.15 126.453 735.765 126.453C747.3 126.453 756.581 128.615 763.61 132.941C770.819 137.266 776.406 143.484 780.37 151.594V129.426H816.595V270H781.181V247.022C777.036 255.492 771.359 262.07 764.15 266.756C757.122 271.262 747.66 273.514 735.765 273.514ZM702.784 199.983C702.784 207.192 704.406 213.951 707.65 220.258C711.075 226.386 715.67 231.342 721.438 235.127C727.385 238.731 734.143 240.534 741.713 240.534C749.462 240.534 756.311 238.731 762.258 235.127C768.386 231.522 773.071 226.656 776.315 220.529C779.559 214.401 781.181 207.643 781.181 200.254C781.181 192.865 779.559 186.106 776.315 179.979C773.071 173.671 768.386 168.715 762.258 165.11C756.311 161.326 749.462 159.433 741.713 159.433C734.143 159.433 727.385 161.326 721.438 165.11C715.49 168.715 710.895 173.581 707.65 179.708C704.406 185.836 702.784 192.594 702.784 199.983ZM874.774 203.227V270H838.279V72.656H874.774V186.196L927.489 129.426H979.393L913.162 194.847L979.664 270H931.274L874.774 203.227ZM1038.65 273.514C1024.41 273.514 1011.79 270.27 1000.8 263.782C989.807 257.114 981.246 248.193 975.119 237.019C968.991 225.845 965.927 213.5 965.927 199.983C965.927 186.647 969.081 174.302 975.389 162.948C981.697 151.594 990.348 142.582 1001.34 135.914C1012.52 129.246 1024.95 125.912 1038.65 125.912C1052.34 125.912 1064.6 129.246 1075.41 135.914C1086.41 142.582 1094.88 151.594 1100.82 162.948C1106.95 174.121 1110.02 186.467 1110.02 199.983C1110.02 204.489 1109.66 208.814 1108.93 212.959H1003.77C1005.94 221.43 1009.99 228.278 1015.94 233.505C1022.07 238.551 1029.64 241.074 1038.65 241.074C1046.22 241.074 1052.98 239.362 1058.92 235.938C1064.87 232.333 1069.56 227.738 1072.98 222.151L1101.36 243.507C1095.6 252.518 1087.13 259.817 1075.95 265.404C1064.78 270.811 1052.34 273.514 1038.65 273.514ZM1073.25 185.656C1071.09 177.546 1066.85 170.787 1060.54 165.381C1054.24 159.974 1046.76 157.271 1038.11 157.271C1029.64 157.271 1022.25 159.884 1015.94 165.11C1009.81 170.337 1005.76 177.185 1003.77 185.656H1073.25Z" fill="black"></path> <path d="M2330.66 275.772C2309.47 275.772 2291.84 268.74 2277.78 254.676C2263.9 240.612 2256.96 223.267 2256.96 202.64C2256.96 182.013 2263.9 164.667 2277.78 150.603C2291.84 136.539 2309.47 129.507 2330.66 129.507C2344.91 129.507 2357.66 132.882 2368.91 139.633C2380.35 146.384 2389.26 155.572 2395.63 167.199L2374.54 179.012C2370.41 170.761 2364.5 164.198 2356.82 159.323C2349.31 154.447 2340.59 152.009 2330.66 152.009C2316.22 152.009 2304.4 156.885 2295.21 166.636C2286.03 176.387 2281.43 188.388 2281.43 202.64C2281.43 216.891 2286.03 228.892 2295.21 238.643C2304.4 248.394 2316.22 253.27 2330.66 253.27C2340.59 253.27 2349.31 250.832 2356.82 245.957C2364.5 241.081 2370.41 234.518 2374.54 226.267L2395.63 238.081C2389.26 249.707 2380.35 258.896 2368.91 265.646C2357.66 272.397 2344.91 275.772 2330.66 275.772Z" fill="#97A3B7"></path> <path d="M2151.37 275.773C2140.49 275.773 2131.21 273.804 2123.52 269.866C2116.02 265.74 2110.3 260.209 2106.36 253.27C2102.43 246.145 2100.46 238.175 2100.46 229.362C2100.46 214.548 2104.77 203.859 2113.4 197.296C2122.21 190.733 2134.77 187.451 2151.09 187.451H2199.47V177.325C2199.47 164.574 2196.56 155.76 2190.75 150.885C2185.12 146.009 2176.59 143.571 2165.15 143.571C2154.46 143.571 2146.68 145.634 2141.81 149.76C2136.93 153.697 2134.21 158.198 2133.65 163.261H2108.9C2109.46 155.198 2112.18 148.072 2117.05 141.884C2121.93 135.508 2128.58 130.445 2137.02 126.695C2145.46 122.944 2155.31 121.069 2166.56 121.069C2178.37 121.069 2188.59 122.944 2197.22 126.695C2205.84 130.258 2212.5 135.977 2217.19 143.853C2221.88 151.541 2224.22 161.761 2224.22 174.512V234.987C2224.22 242.863 2224.22 249.801 2224.22 255.802C2224.41 261.615 2224.88 267.334 2225.63 272.96H2203.97C2203.41 268.647 2203.03 264.615 2202.84 260.865C2202.66 256.927 2202.56 252.52 2202.56 247.645C2198.62 255.521 2192.25 262.178 2183.43 267.616C2174.62 273.054 2163.93 275.773 2151.37 275.773ZM2156.71 253.27C2164.59 253.27 2171.71 251.864 2178.09 249.051C2184.65 246.238 2189.81 242.113 2193.56 236.675C2197.5 231.237 2199.47 224.58 2199.47 216.704V206.578H2155.31C2146.12 206.578 2138.9 208.453 2133.65 212.204C2128.4 215.766 2125.77 221.486 2125.77 229.362C2125.77 236.3 2128.21 242.019 2133.09 246.52C2138.15 251.02 2146.02 253.27 2156.71 253.27Z" fill="#97A3B7"></path> <path d="M2041.14 272.959V62H2065.33V272.959H2041.14Z" fill="#97A3B7"></path> <path d="M1887.67 331.747H1863.48V132.32H1887.67V153.978C1892.55 146.853 1899.39 141.04 1908.21 136.539C1917.21 131.851 1926.86 129.507 1937.18 129.507C1956.68 129.507 1972.99 136.633 1986.12 150.884C1999.43 165.136 2006.09 182.388 2006.09 202.64C2006.09 222.892 1999.43 240.144 1986.12 254.395C1972.99 268.647 1956.68 275.772 1937.18 275.772C1926.86 275.772 1917.21 273.522 1908.21 269.022C1899.39 264.334 1892.55 258.427 1887.67 251.301V331.747ZM1899.2 238.925C1908.21 248.676 1919.64 253.551 1933.52 253.551C1947.4 253.551 1958.84 248.676 1967.84 238.925C1976.84 229.174 1981.34 217.079 1981.34 202.64C1981.34 188.201 1976.84 176.106 1967.84 166.355C1958.84 156.604 1947.4 151.728 1933.52 151.728C1919.64 151.728 1908.21 156.604 1899.2 166.355C1890.2 176.106 1885.7 188.201 1885.7 202.64C1885.7 217.079 1890.2 229.174 1899.2 238.925Z" fill="#97A3B7"></path> <path d="M1812.7 272.959L1736.48 202.64V272.959H1712.29V62H1736.48V187.169L1797.8 132.32H1829.86L1760.67 194.483L1845.33 272.959H1812.7Z" fill="#97A3B7"></path> <path d="M1606.45 272.96V132.32H1630.64V159.604C1633.26 150.978 1638.32 144.04 1645.82 138.79C1653.51 133.539 1661.58 130.914 1670.01 130.914C1674.14 130.914 1677.8 131.289 1680.98 132.039V157.073C1677.61 155.573 1673.2 154.823 1667.76 154.823C1658.01 154.823 1649.39 159.042 1641.89 167.48C1634.39 175.918 1630.64 187.826 1630.64 203.203V272.96H1606.45Z" fill="#97A3B7"></path> <path d="M1498.79 275.772C1477.61 275.772 1459.98 268.74 1445.91 254.676C1432.04 240.425 1425.1 223.079 1425.1 202.64C1425.1 182.2 1432.04 164.948 1445.91 150.884C1459.98 136.633 1477.61 129.507 1498.79 129.507C1519.8 129.507 1537.24 136.633 1551.11 150.884C1565.18 164.948 1572.21 182.2 1572.21 202.64C1572.21 223.079 1565.18 240.425 1551.11 254.676C1537.24 268.74 1519.8 275.772 1498.79 275.772ZM1463.35 238.643C1472.54 248.394 1484.36 253.27 1498.79 253.27C1513.23 253.27 1524.95 248.394 1533.95 238.643C1542.96 228.892 1547.46 216.891 1547.46 202.64C1547.46 188.388 1542.96 176.387 1533.95 166.636C1524.95 156.885 1513.23 152.009 1498.79 152.009C1484.36 152.009 1472.54 156.885 1463.35 166.636C1454.35 176.387 1449.85 188.388 1449.85 202.64C1449.85 216.891 1454.35 228.892 1463.35 238.643Z" fill="#97A3B7"></path> <path d="M1338.52 272.96L1289.58 137.383L1240.91 272.96H1217.57L1163 73.2513H1190.28L1231.91 229.08L1289.58 69.876L1347.24 229.08L1389.15 73.2513H1416.43L1361.86 272.96H1338.52Z" fill="#97A3B7"></path> <path d="M2488.57 275.772C2467.01 275.772 2449.47 268.834 2435.97 254.958C2422.47 241.081 2415.72 223.642 2415.72 202.64C2415.72 181.825 2422.57 164.479 2436.25 150.603C2449.94 136.539 2467.48 129.507 2488.85 129.507C2507.79 129.507 2523.64 135.883 2536.39 148.634C2549.33 161.198 2555.8 178.356 2555.8 200.108C2555.8 202.921 2555.7 205.359 2555.52 207.421H2440.19C2440.57 220.548 2445.26 231.518 2454.26 240.331C2463.44 249.145 2474.98 253.551 2488.85 253.551C2508.54 253.551 2523.17 245.394 2532.73 229.08L2551.86 242.3C2538.17 264.615 2517.08 275.772 2488.57 275.772ZM2441.88 187.732H2531.05C2529.17 176.481 2524.2 167.574 2516.14 161.01C2508.26 154.26 2498.89 150.884 2488.01 150.884C2476.95 150.884 2467.01 154.26 2458.19 161.01C2449.57 167.574 2444.13 176.481 2441.88 187.732Z" fill="#97A3B7"></path> <defs> <linearGradient id="paint0_linear_56845_2993" x1="283.847" y1="190.577" x2="-7.30766e-06" y2="190.577" gradientUnits="userSpaceOnUse"> <stop offset="0.12998" stop-color="#A033FF"></stop> <stop offset="0.610381" stop-color="#0094FF"></stop> <stop offset="1" stop-color="#4FB500"></stop> </linearGradient> <linearGradient id="paint1_linear_56845_2993" x1="130.096" y1="113.702" x2="41.3943" y2="291.106" gradientUnits="userSpaceOnUse"> <stop stop-color="#FFD600" stop-opacity="0"></stop> <stop offset="0.563347" stop-color="#FFC700"></stop> </linearGradient> <linearGradient id="paint2_linear_56845_2993" x1="153.75" y1="190.577" x2="254.279" y2="297.02" gradientUnits="userSpaceOnUse"> <stop offset="0.0297327" stop-color="#FF3B30" stop-opacity="0"></stop> <stop offset="0.842824" stop-color="#E73B2D"></stop> </linearGradient> </defs> </svg> 