<?xml version="1.0" encoding="UTF-8"?> <svg xmlns="http://www.w3.org/2000/svg" width="128" height="28" viewBox="0 0 128 28" fill="none"> <mask id="mask0_629_22006" style="mask-type:luminance" maskUnits="userSpaceOnUse" x="40" y="1" width="86" height="26"> <path fill-rule="evenodd" clip-rule="evenodd" d="M121.658 1.49414H40.1494V26.5078H121.603C123.975 26.498 125.894 24.5677 125.884 22.1934V22.1864V5.77631C125.91 3.43702 124.035 1.52076 121.697 1.49414H121.658Z" fill="white"></path> </mask> <g mask="url(#mask0_629_22006)"> <path fill-rule="evenodd" clip-rule="evenodd" d="M38.6348 28.0236H127.403V-0.0227051H38.6348V28.0236Z" fill="#565E69"></path> </g> <mask id="mask1_629_22006" style="mask-type:luminance" maskUnits="userSpaceOnUse" x="1" y="1" width="40" height="26"> <path fill-rule="evenodd" clip-rule="evenodd" d="M5.85785 1.49414C5.84525 1.49414 5.83124 1.49414 5.81863 1.49414C3.44852 1.49414 1.51545 3.4006 1.49023 5.77631V22.1864C1.51125 24.5635 3.43311 26.484 5.81163 26.5078H40.1502V1.49414H5.85785Z" fill="white"></path> </mask> <g mask="url(#mask1_629_22006)"> <path fill-rule="evenodd" clip-rule="evenodd" d="M-0.0263672 28.0236H41.6677V-0.0227051H-0.0263672V28.0236Z" fill="#EDEDF0"></path> </g> <mask id="mask2_629_22006" style="mask-type:luminance" maskUnits="userSpaceOnUse" x="1" y="1" width="40" height="26"> <path fill-rule="evenodd" clip-rule="evenodd" d="M40.5341 1.05396V26.9389H5.77104L5.541 26.9291C3.13489 26.7632 1.21084 24.8562 1.01463 22.4574L1 22.1889V5.6499L1.01426 5.38721C1.21352 2.95395 3.24955 1.05396 5.71781 1.05396H40.5341ZM39.7148 1.92676H5.85665L5.62121 1.92949C3.5951 2.01399 1.95964 3.66564 1.92188 5.71866V22.1862C1.95129 24.3196 3.67565 26.0411 5.81043 26.0663H39.7148V1.92676Z" fill="white"></path> </mask> <g mask="url(#mask2_629_22006)"> <path fill-rule="evenodd" clip-rule="evenodd" d="M-0.517578 28.4575H42.0506V-0.462891H-0.517578V28.4575Z" fill="#565E69"></path> </g> <path fill-rule="evenodd" clip-rule="evenodd" d="M6.19434 5.8623V21.212H15.9619V17.5196H10.1305V5.8623H6.19434Z" fill="#565E69"></path> <path fill-rule="evenodd" clip-rule="evenodd" d="M17.5127 21.2116H21.4475V5.86328H17.5127V21.2116Z" fill="#565E69"></path> <path fill-rule="evenodd" clip-rule="evenodd" d="M33.8835 5.8623V15.8666L27.814 5.95616L27.7607 5.8623H23.0527V21.212H26.7914V10.9625L33.1033 21.212H37.6222V5.8623H33.8835Z" fill="#565E69"></path> <path fill-rule="evenodd" clip-rule="evenodd" d="M47.6249 5.95728L41.2178 21.2117H45.4467L46.5631 18.1973H52.2461L53.4101 21.2117H57.7301L51.4364 6.06093L51.3244 5.95728H47.6249ZM49.4298 10.2241L51.1289 14.9461H47.6816L49.4298 10.2241Z" fill="#EDEDF0"></path> <mask id="mask3_629_22006" style="mask-type:luminance" maskUnits="userSpaceOnUse" x="57" y="5" width="15" height="17"> <path fill-rule="evenodd" clip-rule="evenodd" d="M57.3145 13.5847C57.3145 18.3922 60.6133 21.6518 65.5706 21.6518C67.7796 21.7092 69.9663 21.2091 71.9301 20.195L71.9764 20.1404V12.0733H65.6813V15.3231L65.8466 15.2839H68.854V17.6442C67.8903 18.126 66.8229 18.3768 65.7457 18.3698C63.2509 18.451 61.1638 16.4941 61.0825 14.0008C61.0797 13.8831 61.0797 13.7654 61.0839 13.6478C60.9411 11.1866 62.8181 9.07562 65.2793 8.93134C65.4025 8.92294 65.5272 8.92154 65.6505 8.92574C66.9966 8.83889 68.3161 9.35578 69.2463 10.3321L69.3415 10.4288L71.8377 7.61041L71.7424 7.51516C70.3319 6.20123 68.3428 5.52466 65.6197 5.52466C60.6679 5.52466 57.3145 8.77446 57.3145 13.5847Z" fill="white"></path> </mask> <g mask="url(#mask3_629_22006)"> <path fill-rule="evenodd" clip-rule="evenodd" d="M55.7998 23.1718H73.4944V4.00781H55.7998V23.1718Z" fill="#EDEDF0"></path> </g> <mask id="mask4_629_22006" style="mask-type:luminance" maskUnits="userSpaceOnUse" x="91" y="5" width="14" height="17"> <path fill-rule="evenodd" clip-rule="evenodd" d="M91.8281 5.95728V21.2103H95.4491V15.2206H96.7617L99.912 21.2411H104.184L100.296 14.883C102.306 14.5006 103.704 12.6642 103.54 10.6233C103.54 7.51914 101.596 5.96288 97.7072 5.95728H91.8281ZM95.4501 8.8215H97.3454C98.2657 8.8215 99.8247 9.06664 99.8247 10.6229C99.8247 12.1834 98.3147 12.3248 97.1493 12.3248H95.4501V8.8215Z" fill="white"></path> </mask> <g mask="url(#mask4_629_22006)"> <path fill-rule="evenodd" clip-rule="evenodd" d="M90.3135 22.7584H105.702V4.44043H90.3135V22.7584Z" fill="#EDEDF0"></path> </g> <path fill-rule="evenodd" clip-rule="evenodd" d="M111.191 5.9563L104.776 21.2107H109.004L110.12 18.1963H115.803L116.969 21.2107H121.289L114.905 6.05996L114.858 5.9563H111.191ZM112.937 10.2229L114.662 14.9449H111.19L112.937 10.2229Z" fill="#EDEDF0"></path> <path fill-rule="evenodd" clip-rule="evenodd" d="M5.54972 1.05354C32.8074 1.05354 52.2179 1.05354 63.7814 1.05354C73.1834 1.05354 87.6338 0.933074 107.292 1.05354C109.27 1.06475 114.075 1.06755 121.703 1.05914C124.216 1.05634 126.255 3.09027 126.257 5.60326V5.60886V22.3916C126.257 24.9031 124.221 26.9399 121.708 26.9399H5.54972C3.03673 26.9399 1 24.9031 1 22.3916V5.60326C1 3.09027 3.03673 1.05354 5.54972 1.05354Z" stroke="#565E69" stroke-width="1.56959"></path> <mask id="mask5_629_22006" style="mask-type:luminance" maskUnits="userSpaceOnUse" x="73" y="5" width="18" height="17"> <path fill-rule="evenodd" clip-rule="evenodd" d="M81.9033 5.36601C77.2121 5.42765 73.4594 9.27698 73.5183 13.9654C73.5645 17.5584 75.866 20.7339 79.2656 21.8938L80.3835 18.3764C77.8705 17.557 76.4991 14.8563 77.3186 12.3433C78.138 9.83028 80.8373 8.45893 83.3503 9.27698C85.8633 10.0978 87.2361 12.7985 86.4166 15.3115C85.9431 16.7641 84.8043 17.903 83.3503 18.3764L84.4765 21.8882C88.945 20.4622 91.4132 15.6841 89.9872 11.2157C88.8652 7.6969 85.5971 5.30578 81.9033 5.30298V5.36601Z" fill="white"></path> </mask> <g mask="url(#mask5_629_22006)"> <path fill-rule="evenodd" clip-rule="evenodd" d="M72.001 23.4096H91.9074V3.78613H72.001V23.4096Z" fill="#EDEDF0"></path> </g> </svg> 