<?xml version="1.0" encoding="UTF-8"?> <svg xmlns="http://www.w3.org/2000/svg" width="34" height="34" viewBox="0 0 34 34" fill="none"> <path d="M17.1661 0.00180383C13.1032 -0.0583153 9.1548 1.38609 6.04255 4.07106C2.9303 6.75604 0.861976 10.5023 0.215551 14.6253C-0.430875 18.7483 0.387756 22.9726 2.52185 26.5264C4.65594 30.0803 7.963 32.7262 11.8387 33.9808C12.6221 34.1419 13.2489 33.2562 13.2489 32.5315V30.1964C8.54821 31.2432 7.05965 27.8614 7.05965 27.8614C6.75401 26.8421 6.15263 25.9431 5.33607 25.2848C3.76917 24.1575 5.41441 24.238 5.41441 24.238C5.93763 24.2809 6.44386 24.4488 6.89273 24.7284C7.34161 25.008 7.7207 25.3915 7.99979 25.8484C9.33165 28.1835 12.3088 27.9419 13.2489 27.5393C13.1666 26.7387 13.3022 25.9303 13.6406 25.2043C8.31317 24.238 5.41441 21.0173 5.41441 16.6692C5.35836 14.4016 6.17476 12.2027 7.68641 10.5498C7.2653 9.75026 7.06463 8.84772 7.10605 7.93957C7.14747 7.03141 7.42941 6.15212 7.92145 5.39658C8.86765 5.4157 9.80016 5.63259 10.6622 6.03404C11.5242 6.43548 12.2977 7.01307 12.9355 7.73163C14.2959 7.25454 15.7296 7.03625 17.1661 7.08748C18.5966 7.04191 20.0249 7.2322 21.3968 7.65111C22.0441 6.95083 22.8212 6.39064 23.6823 6.00347C24.5433 5.61629 25.471 5.40995 26.4108 5.39658C26.8921 6.1544 27.1739 7.02752 27.2289 7.93071C27.2838 8.83389 27.1099 9.73629 26.7242 10.5498C28.2074 12.2154 28.9951 14.4128 28.9179 16.6692C28.9179 21.0173 26.0191 24.238 20.6917 25.2043C21.03 25.9303 21.1657 26.7387 21.0834 27.5393V32.5315C21.0831 32.7288 21.122 32.9241 21.1977 33.1054C21.2734 33.2867 21.3844 33.4502 21.5237 33.5859C21.6631 33.7216 21.8279 33.8266 22.0082 33.8945C22.1884 33.9624 22.3803 33.9918 22.5719 33.9808C26.3553 32.6317 29.5539 29.9532 31.6038 26.4176C33.6537 22.8819 34.4234 18.716 33.7772 14.6541C33.131 10.5923 31.1103 6.89528 28.0715 4.21474C25.0326 1.53421 21.1706 0.0422337 17.1661 0.00180383Z" fill="white"></path> </svg> 