<?xml version="1.0" encoding="UTF-8"?> <svg xmlns="http://www.w3.org/2000/svg" width="15" height="16" viewBox="0 0 15 16" fill="none"> <g clip-path="url(#clip0_478_17661)"> <path fill-rule="evenodd" clip-rule="evenodd" d="M7.5 15.2573C11.6423 15.2573 15 11.8445 15 7.63426C15 3.42407 11.6423 0.0112305 7.5 0.0112305C3.35775 0.0112305 0 3.42407 0 7.63426C0 11.8445 3.35775 15.2573 7.5 15.2573ZM13.3988 6.49768C13.3599 6.50304 13.3216 6.51145 13.284 6.52283C12.5498 6.74772 11.7428 6.92076 10.863 7.0412C10.773 4.845 10.1917 3.03834 9.48825 1.80646C11.4878 2.52912 13.0035 4.31063 13.3988 6.49768ZM13.4865 8.05125C13.3238 10.5615 11.703 12.6617 9.48825 13.4621C10.1535 12.2973 10.7092 10.6187 10.8442 8.58184C11.7369 8.47281 12.6202 8.29544 13.4865 8.05125ZM9.369 7.1929C9.27525 3.94929 8.178 1.53584 7.5 1.53584C6.822 1.53584 5.72475 3.94929 5.631 7.19214C6.2265 7.23254 6.849 7.25313 7.5 7.25313C8.151 7.25313 8.7735 7.23406 9.369 7.1929ZM4.1565 8.58108C3.26364 8.47228 2.38013 8.29521 1.5135 8.05125C1.67625 10.5615 3.297 12.6617 5.51175 13.4621C4.8465 12.2973 4.2915 10.6187 4.1565 8.58108ZM4.137 7.0412C4.227 4.845 4.80825 3.03834 5.51175 1.80646C3.51225 2.52912 1.9965 4.31063 1.60125 6.49768C1.6395 6.50302 1.67775 6.5114 1.716 6.52283C2.50875 6.75915 3.318 6.93296 4.137 7.0412ZM9.336 8.72287C8.72468 8.76028 8.11238 8.77857 7.5 8.77773C6.86475 8.77773 6.25275 8.75944 5.66325 8.72287C5.871 11.6341 6.86775 13.7327 7.5 13.7327C8.13225 13.7327 9.129 11.6349 9.336 8.72287Z" fill="black" fill-opacity="0.59"></path> </g> <defs> <clipPath id="clip0_478_17661"> <rect width="15" height="16" fill="white"></rect> </clipPath> </defs> </svg> 