<?xml version="1.0" encoding="UTF-8"?> <svg xmlns="http://www.w3.org/2000/svg" width="86" height="86" viewBox="0 0 86 86" fill="none"> <path d="M84.4244 8.59332C83.9355 8.22942 83.3682 7.98493 82.768 7.87936C82.1678 7.77379 81.5511 7.81008 80.9674 7.98533L56.5609 15.3071L45.0197 8.38119C45.0168 8.37936 45.0145 8.37728 45.0116 8.37571L31.9813 0.555186C31.9626 0.54398 31.9433 0.534598 31.9245 0.523652C31.9188 0.520265 31.9128 0.517398 31.9073 0.51401C31.6507 0.36756 31.3784 0.250587 31.0955 0.165319L31.0801 0.160368C30.7976 0.0773182 30.5067 0.0260097 30.2128 0.00739191L30.1764 0.00556767C29.8845 -0.010009 29.5919 0.00712389 29.3038 0.0566465C29.2992 0.0576889 29.2947 0.0579495 29.29 0.0587313C29.1476 0.084333 29.0066 0.117829 28.8679 0.159065C28.8608 0.161149 28.8535 0.162192 28.8462 0.164277L2.78562 7.98089C1.98044 8.2225 1.2746 8.71722 0.772804 9.39168C0.271012 10.0661 8.95233e-06 10.8844 0 11.725V74.2705C1.86779e-05 74.8799 0.142505 75.4808 0.416083 76.0253C0.689661 76.5698 1.08675 77.0429 1.57566 77.4066C2.06457 77.7704 2.63174 78.0148 3.23191 78.1203C3.83208 78.2259 4.44862 78.1897 5.0323 78.0146L29.4391 70.6926L54.0189 85.4406C54.0703 85.4713 54.1229 85.4989 54.1756 85.5274C54.1982 85.5396 54.2204 85.5532 54.2433 85.5649C54.3301 85.6095 54.4182 85.6506 54.5071 85.6884C54.5284 85.6975 54.5503 85.7048 54.5717 85.7134C54.6408 85.7413 54.7101 85.7679 54.7802 85.7916C54.8122 85.8023 54.8445 85.8117 54.8766 85.8216C54.9376 85.8403 54.9991 85.8583 55.0608 85.874C55.0955 85.8828 55.1307 85.8909 55.1653 85.8992C55.2263 85.9131 55.2878 85.9253 55.3491 85.9362C55.3837 85.9422 55.4184 85.9485 55.4528 85.9537C55.5187 85.9633 55.5849 85.9709 55.6511 85.9774C55.6813 85.9805 55.7111 85.9842 55.7416 85.9865C55.8377 85.9936 55.9339 85.998 56.0303 85.998H56.0324C56.1207 85.998 56.2088 85.9944 56.2969 85.9884C56.3266 85.9863 56.3561 85.9826 56.386 85.98C56.4452 85.9746 56.5043 85.9686 56.5635 85.9607C56.5982 85.956 56.6323 85.9498 56.6664 85.9443C56.7212 85.9352 56.7759 85.9256 56.8301 85.9144C56.8653 85.9071 56.8999 85.8987 56.9349 85.8904C56.9891 85.8776 57.043 85.8633 57.0967 85.8482C57.1157 85.8427 57.1348 85.839 57.1538 85.8333L83.2144 78.0151C84.0196 77.7736 84.7255 77.2789 85.2273 76.6044C85.7292 75.9299 86.0002 75.1117 86.0003 74.271V11.7295C86.0001 11.1201 85.8576 10.5191 85.584 9.97464C85.3104 9.43013 84.9133 8.95711 84.4244 8.59332ZM7.81818 14.6336L26.0606 9.16196V63.5439L7.81818 69.0167V14.6336ZM33.8788 10.8129L52.1212 21.7607V75.1844L33.8788 64.239V10.8129ZM78.1818 71.3621L59.9394 76.8348V22.456L78.1818 16.9833V71.3621Z" fill="#414E5E"></path> </svg> 