<?xml version="1.0" encoding="UTF-8"?> <svg xmlns="http://www.w3.org/2000/svg" width="857" height="197" viewBox="0 0 857 197" fill="none"> <g clip-path="url(#clip0_56956_3031)"> <path d="M447.338 84H409.149C388.632 84 372 100.632 372 121.149V159.338C372 179.854 388.632 196.487 409.149 196.487H447.338C467.854 196.487 484.487 179.854 484.487 159.338V121.149C484.487 100.632 467.854 84 447.338 84Z" fill="white"></path> <path d="M447.338 84H409.149C388.632 84 372 100.632 372 121.149V159.338C372 179.854 388.632 196.487 409.149 196.487H447.338C467.854 196.487 484.487 179.854 484.487 159.338V121.149C484.487 100.632 467.854 84 447.338 84Z" fill="url(#paint0_linear_56956_3031)"></path> <g filter="url(#filter0_d_56956_3031)"> <path d="M428.214 104.65C448.806 104.65 465.498 119.066 465.498 136.85C465.498 154.634 448.806 169.05 428.214 169.05C423.992 169.05 419.934 168.444 416.151 167.327C411.923 170.615 405.365 173.376 396.48 175.605C396.059 175.71 395.614 175.652 395.235 175.44C394.414 174.982 394.119 173.944 394.578 173.123L395.214 171.969C398.164 166.539 400.005 162.086 400.737 158.61C394.645 152.881 390.93 145.24 390.93 136.85C390.93 119.066 407.622 104.65 428.214 104.65Z" fill="white"></path> </g> </g> <defs> <filter id="filter0_d_56956_3031" x="380.93" y="96.6498" width="94.5684" height="91.0063" filterUnits="userSpaceOnUse" color-interpolation-filters="sRGB"> <feFlood flood-opacity="0" result="BackgroundImageFix"></feFlood> <feColorMatrix in="SourceAlpha" type="matrix" values="0 0 0 0 0 0 0 0 0 0 0 0 0 0 0 0 0 0 127 0" result="hardAlpha"></feColorMatrix> <feOffset dy="2"></feOffset> <feGaussianBlur stdDeviation="5"></feGaussianBlur> <feComposite in2="hardAlpha" operator="out"></feComposite> <feColorMatrix type="matrix" values="0 0 0 0 0 0 0 0 0 0 0 0 0 0 0 0 0 0 0.1 0"></feColorMatrix> <feBlend mode="normal" in2="BackgroundImageFix" result="effect1_dropShadow_56956_3031"></feBlend> <feBlend mode="normal" in="SourceGraphic" in2="effect1_dropShadow_56956_3031" result="shape"></feBlend> </filter> <linearGradient id="paint0_linear_56956_3031" x1="385.193" y1="185.815" x2="500.487" y2="67.0787" gradientUnits="userSpaceOnUse"> <stop offset="0.23798" stop-color="#50C750"></stop> <stop offset="1" stop-color="#EBFF00"></stop> </linearGradient> <clipPath id="clip0_56956_3031"> <rect width="113" height="113" fill="white" transform="translate(372 84)"></rect> </clipPath> </defs> </svg> 