<?xml version="1.0" encoding="UTF-8"?> <svg xmlns="http://www.w3.org/2000/svg" width="265" height="196" viewBox="0 0 265 196" fill="none"> <mask id="path-1-outside-1_640_22651" maskUnits="userSpaceOnUse" x="16" y="11" width="225" height="145" fill="black"> <rect fill="white" x="16" y="11" width="225" height="145"></rect> <path d="M26.8021 150V130.05L78.1021 81.6C82.1555 77.9267 85.1321 74.6333 87.0321 71.72C88.9321 68.8067 90.1988 66.1467 90.8321 63.74C91.5921 61.3333 91.9721 59.1167 91.9721 57.09C91.9721 51.77 90.1355 47.7167 86.4621 44.93C82.9155 42.0167 77.6588 40.56 70.6921 40.56C65.1188 40.56 59.9255 41.6367 55.1121 43.79C50.4255 45.9433 46.4355 49.3 43.1421 53.86L20.7221 39.42C25.7888 31.82 32.8821 25.8033 42.0021 21.37C51.1221 16.9367 61.6355 14.72 73.5421 14.72C83.4221 14.72 92.0355 16.3667 99.3821 19.66C106.855 22.8267 112.619 27.3233 116.672 33.15C120.852 38.9767 122.942 45.9433 122.942 54.05C122.942 58.3567 122.372 62.6633 121.232 66.97C120.219 71.15 118.065 75.5833 114.772 80.27C111.605 84.9567 106.919 90.2133 100.712 96.04L58.1521 136.13L52.2621 124.92H127.312V150H26.8021ZM182.566 152.28C173.32 152.28 164.136 151.077 155.016 148.67C145.896 146.137 138.17 142.59 131.836 138.03L143.806 114.47C148.873 118.143 154.763 121.057 161.476 123.21C168.19 125.363 174.966 126.44 181.806 126.44C189.533 126.44 195.613 124.92 200.046 121.88C204.48 118.84 206.696 114.66 206.696 109.34C206.696 104.273 204.733 100.283 200.806 97.37C196.88 94.4567 190.546 93 181.806 93H167.746V72.67L204.796 30.68L208.216 41.7H138.486V17H231.586V36.95L194.726 78.94L179.146 70.01H188.076C204.416 70.01 216.766 73.6833 225.126 81.03C233.486 88.3767 237.666 97.8133 237.666 109.34C237.666 116.813 235.703 123.843 231.776 130.43C227.85 136.89 221.833 142.147 213.726 146.2C205.62 150.253 195.233 152.28 182.566 152.28Z"></path> </mask> <path d="M26.8021 150H23.8021V153H26.8021V150ZM26.8021 130.05L24.7423 127.869L23.8021 128.757V130.05H26.8021ZM78.1021 81.6L76.0876 79.377L76.0647 79.3978L76.0423 79.419L78.1021 81.6ZM87.0321 71.72L89.545 73.3588L89.545 73.3588L87.0321 71.72ZM90.8321 63.74L87.9714 62.8366L87.9495 62.9061L87.9309 62.9765L90.8321 63.74ZM86.4621 44.93L84.5579 47.2482L84.6028 47.285L84.649 47.3201L86.4621 44.93ZM55.1121 43.79L53.887 41.0515L53.8733 41.0577L53.8596 41.064L55.1121 43.79ZM43.1421 53.86L41.5177 56.3821L43.9089 57.9222L45.5742 55.6165L43.1421 53.86ZM20.7221 39.42L18.226 37.7559L16.5354 40.2918L19.0977 41.9421L20.7221 39.42ZM42.0021 21.37L40.6906 18.6719L40.6906 18.6719L42.0021 21.37ZM99.3821 19.66L98.155 22.3975L98.1832 22.4102L98.2117 22.4222L99.3821 19.66ZM116.672 33.15L114.209 34.8632L114.222 34.881L114.235 34.8987L116.672 33.15ZM121.232 66.97L118.332 66.2023L118.324 66.2327L118.317 66.2632L121.232 66.97ZM114.772 80.27L112.318 78.5452L112.302 78.5677L112.286 78.5904L114.772 80.27ZM100.712 96.04L98.6588 93.8528L98.6551 93.8563L100.712 96.04ZM58.1521 136.13L55.4964 137.525L57.3338 141.022L60.2092 138.314L58.1521 136.13ZM52.2621 124.92V121.92H47.297L49.6064 126.315L52.2621 124.92ZM127.312 124.92H130.312V121.92H127.312V124.92ZM127.312 150V153H130.312V150H127.312ZM29.8021 150V130.05H23.8021V150H29.8021ZM28.862 132.231L80.162 83.781L76.0423 79.419L24.7423 127.869L28.862 132.231ZM80.1167 83.823C84.2651 80.0635 87.4484 76.5736 89.545 73.3588L84.5193 70.0812C82.8159 72.6931 80.0458 75.7899 76.0876 79.377L80.1167 83.823ZM89.545 73.3588C91.5562 70.2749 92.9929 67.3171 93.7334 64.5035L87.9309 62.9765C87.4047 64.9762 86.3081 67.3384 84.5193 70.0812L89.545 73.3588ZM93.6929 64.6434C94.5235 62.013 94.9721 59.4876 94.9721 57.09H88.9721C88.9721 58.7458 88.6607 60.6537 87.9714 62.8366L93.6929 64.6434ZM94.9721 57.09C94.9721 50.9955 92.8179 45.986 88.2753 42.5399L84.649 47.3201C87.453 49.4473 88.9721 52.5445 88.9721 57.09H94.9721ZM88.3664 42.6118C84.0667 39.0799 78.0093 37.56 70.6921 37.56V43.56C77.3084 43.56 81.7643 44.9534 84.5579 47.2482L88.3664 42.6118ZM70.6921 37.56C64.7211 37.56 59.1076 38.7161 53.887 41.0515L56.3372 46.5285C60.7434 44.5573 65.5165 43.56 70.6921 43.56V37.56ZM53.8596 41.064C48.6608 43.4526 44.2782 47.1631 40.7101 52.1035L45.5742 55.6165C48.5927 51.4369 52.1901 48.434 56.3646 46.516L53.8596 41.064ZM44.7666 51.3378L22.3466 36.8979L19.0977 41.9421L41.5177 56.3821L44.7666 51.3378ZM23.2183 41.0841C27.9573 33.9756 34.6193 28.2946 43.3137 24.0681L40.6906 18.6719C31.145 23.3121 23.6203 29.6644 18.226 37.7559L23.2183 41.0841ZM43.3137 24.0681C51.9597 19.8652 62.0112 17.72 73.5421 17.72V11.72C61.2598 11.72 50.2846 14.0081 40.6906 18.6719L43.3137 24.0681ZM73.5421 17.72C83.0929 17.72 91.2716 19.3118 98.155 22.3975L100.609 16.9225C92.7994 13.4215 83.7514 11.72 73.5421 11.72V17.72ZM98.2117 22.4222C105.241 25.4006 110.524 29.565 114.209 34.8632L119.135 31.4368C114.714 25.0817 108.47 20.2528 100.553 16.8977L98.2117 22.4222ZM114.235 34.8987C118.002 40.1504 119.942 46.4854 119.942 54.05H125.942C125.942 45.4012 123.702 37.8029 119.11 31.4013L114.235 34.8987ZM119.942 54.05C119.942 58.0887 119.408 62.1375 118.332 66.2023L124.132 67.7377C125.336 63.1892 125.942 58.6246 125.942 54.05H119.942ZM118.317 66.2632C117.416 69.9789 115.462 74.0698 112.318 78.5452L117.227 81.9948C120.669 77.0969 123.022 72.3211 124.148 67.6768L118.317 66.2632ZM112.286 78.5904C109.29 83.0247 104.776 88.1104 98.6588 93.8528L102.765 98.2272C109.062 92.3163 113.921 86.8886 117.258 81.9496L112.286 78.5904ZM98.6551 93.8563L56.0951 133.946L60.2092 138.314L102.769 98.2237L98.6551 93.8563ZM60.8079 134.735L54.9179 123.525L49.6064 126.315L55.4964 137.525L60.8079 134.735ZM52.2621 127.92H127.312V121.92H52.2621V127.92ZM124.312 124.92V150H130.312V124.92H124.312ZM127.312 147H26.8021V153H127.312V147ZM155.016 148.67L154.214 151.561L154.232 151.566L154.251 151.571L155.016 148.67ZM131.836 138.03L129.162 136.671L127.998 138.963L130.084 140.465L131.836 138.03ZM143.806 114.47L145.567 112.041L142.723 109.979L141.132 113.111L143.806 114.47ZM161.476 123.21L160.56 126.067L160.56 126.067L161.476 123.21ZM200.046 121.88L201.743 124.354L201.743 124.354L200.046 121.88ZM167.746 93H164.746V96H167.746V93ZM167.746 72.67L165.497 70.6851L164.746 71.5357V72.67H167.746ZM204.796 30.68L207.662 29.7908L206.079 24.6919L202.547 28.6951L204.796 30.68ZM208.216 41.7V44.7H212.289L211.082 40.8108L208.216 41.7ZM138.486 41.7H135.486V44.7H138.486V41.7ZM138.486 17V14H135.486V17H138.486ZM231.586 17H234.586V14H231.586V17ZM231.586 36.95L233.841 38.9291L234.586 38.0799V36.95H231.586ZM194.726 78.94L193.235 81.5428L195.363 82.7626L196.981 80.9191L194.726 78.94ZM179.146 70.01V67.01H167.88L177.655 72.6128L179.146 70.01ZM225.126 81.03L223.146 83.2835L223.146 83.2835L225.126 81.03ZM231.776 130.43L234.34 131.988L234.347 131.977L234.353 131.966L231.776 130.43ZM213.726 146.2L212.385 143.517L212.385 143.517L213.726 146.2ZM182.566 149.28C173.583 149.28 164.657 148.111 155.782 145.769L154.251 151.571C163.616 154.042 173.056 155.28 182.566 155.28V149.28ZM155.819 145.779C146.97 143.321 139.582 139.91 133.589 135.595L130.084 140.465C136.758 145.27 144.823 148.952 154.214 151.561L155.819 145.779ZM134.511 139.389L146.481 115.829L141.132 113.111L129.162 136.671L134.511 139.389ZM142.046 116.899C147.4 120.781 153.582 123.828 160.56 126.067L162.393 120.353C155.944 118.285 150.347 115.506 145.567 112.041L142.046 116.899ZM160.56 126.067C167.56 128.312 174.646 129.44 181.806 129.44V123.44C175.287 123.44 168.819 122.415 162.393 120.353L160.56 126.067ZM181.806 129.44C189.885 129.44 196.636 127.856 201.743 124.354L198.35 119.406C194.591 121.984 189.181 123.44 181.806 123.44V129.44ZM201.743 124.354C206.982 120.762 209.696 115.662 209.696 109.34H203.696C203.696 113.658 201.978 116.918 198.35 119.406L201.743 124.354ZM209.696 109.34C209.696 103.364 207.315 98.4636 202.594 94.9607L199.019 99.7793C202.151 102.103 203.696 105.183 203.696 109.34H209.696ZM202.594 94.9607C197.88 91.4633 190.743 90 181.806 90V96C190.349 96 195.879 97.45 199.019 99.7793L202.594 94.9607ZM181.806 90H167.746V96H181.806V90ZM170.746 93V72.67H164.746V93H170.746ZM169.996 74.6549L207.046 32.6649L202.547 28.6951L165.497 70.6851L169.996 74.6549ZM201.931 31.5692L205.351 42.5892L211.082 40.8108L207.662 29.7908L201.931 31.5692ZM208.216 38.7H138.486V44.7H208.216V38.7ZM141.486 41.7V17H135.486V41.7H141.486ZM138.486 20H231.586V14H138.486V20ZM228.586 17V36.95H234.586V17H228.586ZM229.332 34.9709L192.472 76.9609L196.981 80.9191L233.841 38.9291L229.332 34.9709ZM196.218 76.3372L180.638 67.4072L177.655 72.6128L193.235 81.5428L196.218 76.3372ZM179.146 73.01H188.076V67.01H179.146V73.01ZM188.076 73.01C204.021 73.01 215.541 76.6002 223.146 83.2835L227.107 78.7765C217.992 70.7665 204.812 67.01 188.076 67.01V73.01ZM223.146 83.2835C230.832 90.0378 234.666 98.641 234.666 109.34H240.666C240.666 96.9856 236.141 86.7155 227.107 78.7765L223.146 83.2835ZM234.666 109.34C234.666 116.258 232.857 122.759 229.2 128.894L234.353 131.966C238.549 124.928 240.666 117.369 240.666 109.34H234.666ZM229.213 128.872C225.633 134.761 220.088 139.665 212.385 143.517L215.068 148.883C223.578 144.628 230.066 139.019 234.34 131.988L229.213 128.872ZM212.385 143.517C204.827 147.296 194.941 149.28 182.566 149.28V155.28C195.525 155.28 206.413 153.211 215.068 148.883L212.385 143.517Z" fill="url(#paint0_linear_640_22651)" mask="url(#path-1-outside-1_640_22651)"></path> <path d="M85.1577 173.559H87.9134L90.5668 178.571H90.6804L93.3338 173.559H96.0895L91.8452 181.082V185.196H89.402V181.082L85.1577 173.559ZM104.433 185.196V173.559H112.274V175.588H106.893V178.361H111.871V180.389H106.893V183.167H112.297V185.196H104.433ZM123.236 185.196H120.599L124.616 173.559H127.787L131.798 185.196H129.162L126.247 176.219H126.156L123.236 185.196ZM123.071 180.622H129.298V182.542H123.071V180.622ZM140.199 185.196V173.559H144.79C145.669 173.559 146.419 173.717 147.04 174.031C147.665 174.342 148.14 174.783 148.466 175.355C148.795 175.923 148.96 176.592 148.96 177.361C148.96 178.133 148.794 178.798 148.46 179.355C148.127 179.908 147.644 180.332 147.011 180.628C146.383 180.923 145.621 181.071 144.727 181.071H141.653V179.094H144.33C144.799 179.094 145.189 179.029 145.5 178.9C145.811 178.772 146.042 178.578 146.193 178.321C146.348 178.063 146.426 177.743 146.426 177.361C146.426 176.974 146.348 176.648 146.193 176.383C146.042 176.118 145.809 175.917 145.494 175.781C145.184 175.641 144.792 175.571 144.318 175.571H142.659V185.196H140.199ZM146.483 179.9L149.375 185.196H146.659L143.83 179.9H146.483ZM164.011 176.906C163.966 176.448 163.771 176.092 163.426 175.838C163.081 175.584 162.614 175.457 162.023 175.457C161.621 175.457 161.282 175.514 161.006 175.628C160.729 175.737 160.517 175.891 160.369 176.088C160.225 176.285 160.153 176.508 160.153 176.758C160.146 176.967 160.189 177.148 160.284 177.304C160.383 177.459 160.517 177.594 160.688 177.707C160.858 177.817 161.055 177.914 161.278 177.997C161.502 178.076 161.741 178.145 161.994 178.201L163.04 178.451C163.547 178.565 164.013 178.717 164.438 178.906C164.862 179.095 165.229 179.328 165.54 179.605C165.85 179.881 166.091 180.207 166.261 180.582C166.436 180.957 166.525 181.387 166.528 181.872C166.525 182.584 166.343 183.201 165.983 183.724C165.627 184.243 165.112 184.647 164.438 184.934C163.767 185.219 162.958 185.361 162.011 185.361C161.072 185.361 160.254 185.217 159.557 184.929C158.864 184.641 158.322 184.215 157.932 183.65C157.545 183.082 157.343 182.38 157.324 181.542H159.705C159.731 181.933 159.843 182.258 160.04 182.52C160.241 182.777 160.508 182.972 160.841 183.105C161.178 183.234 161.559 183.298 161.983 183.298C162.4 183.298 162.761 183.237 163.068 183.116C163.379 182.995 163.619 182.826 163.79 182.611C163.96 182.395 164.045 182.147 164.045 181.866C164.045 181.605 163.968 181.385 163.812 181.207C163.661 181.029 163.438 180.878 163.142 180.753C162.85 180.628 162.492 180.514 162.068 180.412L160.801 180.094C159.82 179.855 159.045 179.482 158.477 178.974C157.909 178.467 157.627 177.783 157.631 176.923C157.627 176.219 157.814 175.603 158.193 175.076C158.576 174.55 159.1 174.139 159.767 173.844C160.434 173.548 161.191 173.4 162.04 173.4C162.903 173.4 163.657 173.548 164.301 173.844C164.949 174.139 165.453 174.55 165.812 175.076C166.172 175.603 166.358 176.213 166.369 176.906H164.011Z" fill="#CDCDCD"></path> <defs> <linearGradient id="paint0_linear_640_22651" x1="167.154" y1="258.413" x2="167.154" y2="-79.1534" gradientUnits="userSpaceOnUse"> <stop stop-color="white" stop-opacity="0.45"></stop> <stop offset="1" stop-color="white"></stop> </linearGradient> </defs> </svg> 