<?xml version="1.0" encoding="UTF-8"?> <svg xmlns="http://www.w3.org/2000/svg" width="35" height="33" viewBox="0 0 35 33" fill="none"> <path d="M16.7838 16.372L5.10791 28.6735C5.10835 28.676 5.10923 28.6782 5.10966 28.6807C5.46773 30.0164 6.6968 31 8.15551 31C8.73862 31 9.28609 30.8435 9.75558 30.5688L9.79287 30.5471L22.9356 23.019L16.7838 16.372" fill="#EA4335"></path> <path d="M28.5958 14.2776L28.5846 14.27L22.9106 11.0048L16.5181 16.6513L22.9328 23.0181L28.577 19.7854C29.5665 19.2551 30.2382 18.2196 30.2382 17.0255C30.2382 15.84 29.5755 14.8096 28.5958 14.2776" fill="#FBBC04"></path> <path d="M5.10708 5.32586C5.03689 5.58278 5 5.85189 5 6.13134V27.8686C5 28.1476 5.03645 28.4176 5.10752 28.6736L17.1853 16.6868L5.10708 5.32586Z" fill="#4285F4"></path> <path d="M16.8699 17L22.9133 11.0027L9.78547 3.44745C9.3083 3.16375 8.7514 3.00003 8.15546 3.00003C6.69675 3.00003 5.46604 3.98534 5.10786 5.32272C5.10742 5.32403 5.10742 5.3249 5.10742 5.3261L16.8699 17Z" fill="#34A853"></path> </svg> 