<svg width="48" height="48" viewBox="0 0 48 48" fill="none" xmlns="http://www.w3.org/2000/svg">
  <rect width="48" height="48" rx="24" fill="url(#paint0_linear_14205_5852)" />
  <rect width="48" height="48" rx="24" fill="url(#paint1_linear_14205_5852)" />
  <mask id="mask0_14205_5852" style="mask-type:alpha" maskUnits="userSpaceOnUse" x="14" y="12" width="21" height="23">
    <path d="M27.818 18C27.818 15.8902 26.1096 14.1818 23.9998 14.1818C21.89 14.1818 20.1816 15.8902 20.1816 18C20.1816 20.1098 21.89 21.8182 23.9998 21.8182C26.1096 21.8182 27.818 20.1098 27.818 18ZM29.9998 18C29.9998 21.3148 27.3146 24 23.9998 24C20.6851 24 17.9998 21.3148 17.9998 18C17.9998 14.6852 20.6851 12 23.9998 12C27.3146 12 29.9998 14.6852 29.9998 18ZM16.3635 31.2468C16.3635 32.2759 16.276 32.1818 16.8608 32.1818H31.6843C32.2691 32.1818 32.1816 32.2759 32.1816 31.2468C32.1816 28.7506 28.5773 27.2727 24.2725 27.2727C19.9678 27.2727 16.3635 28.7506 16.3635 31.2468ZM14.1816 31.2468C14.1816 27.0138 18.8714 25.0909 24.2725 25.0909C29.6737 25.0909 34.3635 27.0138 34.3635 31.2468C34.3635 33.4465 33.5113 34.3636 31.6843 34.3636H16.8608C15.0338 34.3636 14.1816 33.4465 14.1816 31.2468Z" fill="#007AFF" />
  </mask>
  <g mask="url(#mask0_14205_5852)">
    <rect x="8.72656" y="8.72729" width="30.5455" height="30.5455" fill="white" />
  </g>
  <defs>
    <linearGradient id="paint0_linear_14205_5852" x1="7.5" y1="6.75" x2="48" y2="48" gradientUnits="userSpaceOnUse">
      <stop stop-color="#F8D280" />
      <stop offset="0.953432" stop-color="#F2AC69" />
    </linearGradient>
    <linearGradient id="paint1_linear_14205_5852" x1="7.5" y1="6.75" x2="48" y2="48" gradientUnits="userSpaceOnUse">
      <stop stop-color="#F19E86" />
      <stop offset="0.953432" stop-color="#F95967" />
    </linearGradient>
  </defs>
</svg>
