<svg width="56" height="56" viewBox="0 0 56 56" fill="none" xmlns="http://www.w3.org/2000/svg">
  <path d="M0 18.4942C0 8.28013 8.28011 0 18.4942 0H37.5058C47.7199 0 56 8.28011 56 18.4942V37.5058C56 47.7199 47.7199 56 37.5059 56H18.4942C8.28013 56 0 47.7199 0 37.5059V18.4942Z" fill="white" />
  <path d="M0 18.4942C0 8.28013 8.28011 0 18.4942 0H37.5058C47.7199 0 56 8.28011 56 18.4942V37.5058C56 47.7199 47.7199 56 37.5059 56H18.4942C8.28013 56 0 47.7199 0 37.5059V18.4942Z" fill="url(#paint0_linear_16111_29883)" />
  <path d="M0 18.4942C0 8.28013 8.28011 0 18.4942 0H37.5058C47.7199 0 56 8.28011 56 18.4942V37.5058C56 47.7199 47.7199 56 37.5059 56H18.4942C8.28013 56 0 47.7199 0 37.5059V18.4942Z" fill="url(#paint1_linear_16111_29883)" />
  <path fill-rule="evenodd" clip-rule="evenodd" d="M27.8353 32.7499C27.8353 32.5795 27.8311 32.4092 27.8228 32.2389C27.8144 32.0686 27.8019 31.8985 27.7851 31.729C27.7684 31.5592 27.7476 31.3901 27.7226 31.2215C27.6976 31.0529 27.6684 30.8849 27.6352 30.7178C27.602 30.5505 27.5646 30.3843 27.5232 30.2189C27.4818 30.0535 27.4362 29.8893 27.3868 29.7262C27.3373 29.563 27.2838 29.4012 27.2264 29.2406C27.169 29.0802 27.1077 28.9211 27.0424 28.7637C26.9772 28.6061 26.9081 28.4503 26.8352 28.2962C26.7623 28.1421 26.6857 27.99 26.6054 27.8396C26.525 27.6892 26.4409 27.5409 26.3533 27.3947C26.2656 27.2485 26.1745 27.1045 26.0799 26.9627C25.985 26.8209 25.8869 26.6817 25.7854 26.5448C25.6838 26.4078 25.579 26.2735 25.4708 26.1417C25.3627 26.0098 25.2514 25.8808 25.1368 25.7546C25.0224 25.6282 24.9049 25.5048 24.7843 25.3842C24.6637 25.2637 24.5404 25.1461 24.4141 25.0317C24.2878 24.9173 24.1587 24.8058 24.0269 24.6977C23.8952 24.5895 23.7608 24.4847 23.6239 24.3832C23.487 24.2816 23.3476 24.1835 23.2058 24.0888C23.064 23.994 22.9201 23.9029 22.7738 23.8152C22.6276 23.7276 22.4794 23.6437 22.329 23.5633C22.1787 23.4828 22.0265 23.4062 21.8723 23.3334C21.7182 23.2605 21.5624 23.1915 21.405 23.1262C21.2474 23.061 21.0885 22.9996 20.9279 22.9421C20.7673 22.8847 20.6056 22.8313 20.4425 22.7818C20.2794 22.7323 20.1151 22.6869 19.9496 22.6455C19.7843 22.604 19.6181 22.5667 19.4508 22.5333C19.2836 22.5001 19.1158 22.471 18.947 22.446C18.7784 22.4211 18.6093 22.4001 18.4397 22.3834C18.27 22.3668 18.1 22.3542 17.9298 22.3459C17.7595 22.3374 17.5891 22.3333 17.4186 22.3333C17.2482 22.3333 17.0778 22.3374 16.9075 22.3459C16.7372 22.3542 16.5673 22.3668 16.3976 22.3834C16.228 22.4001 16.0588 22.4211 15.8902 22.446C15.7216 22.471 15.5536 22.5001 15.3864 22.5333C15.2192 22.5667 15.053 22.604 14.8876 22.6455C14.7222 22.6869 14.558 22.7323 14.3948 22.7818C14.2317 22.8313 14.0699 22.8847 13.9094 22.9421C13.7488 22.9996 13.5898 23.061 13.4323 23.1262C13.2748 23.1915 13.119 23.2605 12.9649 23.3334C12.8108 23.4062 12.6586 23.4828 12.5083 23.5633C12.3579 23.6437 12.2096 23.7276 12.0634 23.8152C11.9172 23.9029 11.7732 23.994 11.6314 24.0888C11.4897 24.1835 11.3504 24.2816 11.2134 24.3832C11.0765 24.4847 10.9421 24.5895 10.8104 24.6977C10.6786 24.8058 10.5495 24.9173 10.4232 25.0317C10.2969 25.1461 10.1735 25.2637 10.0529 25.3842C9.93238 25.5048 9.81486 25.6282 9.70038 25.7546C9.5859 25.8808 9.47459 26.0098 9.36644 26.1417C9.25829 26.2735 9.15343 26.4078 9.05188 26.5448C8.95032 26.6817 8.85219 26.8209 8.75749 26.9627C8.66277 27.1045 8.57159 27.2485 8.48395 27.3947C8.39631 27.5409 8.3123 27.6892 8.23194 27.8396C8.15158 27.99 8.07496 28.1421 8.00207 28.2962C7.92918 28.4503 7.86011 28.6061 7.79487 28.7637C7.72963 28.9211 7.6683 29.0802 7.61086 29.2406C7.55344 29.4012 7.49998 29.563 7.45049 29.7262C7.401 29.8893 7.35556 30.0535 7.31412 30.2189C7.2727 30.3843 7.23536 30.5505 7.2021 30.7178C7.16884 30.8849 7.13971 31.0529 7.1147 31.2215C7.08968 31.3901 7.06883 31.5592 7.05211 31.729C7.0354 31.8985 7.02286 32.0686 7.0145 32.2389C7.00614 32.4092 7.00195 32.5795 7.00195 32.7499C7.00195 32.9203 7.00614 33.0908 7.0145 33.2611C7.02286 33.4314 7.0354 33.6013 7.05211 33.771C7.06883 33.9406 7.08968 34.1097 7.1147 34.2784C7.13971 34.447 7.16884 34.6149 7.2021 34.7822C7.23536 34.9493 7.2727 35.1156 7.31412 35.281C7.35556 35.4463 7.401 35.6106 7.45049 35.7738C7.49998 35.9369 7.55344 36.0987 7.61086 36.2592C7.6683 36.4197 7.72963 36.5787 7.79487 36.7363C7.86011 36.8937 7.92918 37.0495 8.00207 37.2036C8.07496 37.3577 8.15158 37.51 8.23194 37.6604C8.3123 37.8106 8.39631 37.959 8.48395 38.1051C8.57159 38.2513 8.66277 38.3954 8.75749 38.5371C8.85219 38.6789 8.95032 38.8182 9.05188 38.9552C9.15343 39.0921 9.25829 39.2264 9.36644 39.3582C9.47459 39.49 9.5859 39.619 9.70038 39.7454C9.81486 39.8717 9.93238 39.9952 10.0529 40.1156C10.1735 40.2362 10.2969 40.3537 10.4232 40.4682C10.5495 40.5827 10.6786 40.694 10.8104 40.8021C10.9421 40.9103 11.0765 41.0151 11.2134 41.1166C11.3504 41.2182 11.4897 41.3163 11.6314 41.4111C11.7732 41.5058 11.9172 41.597 12.0634 41.6845C12.2096 41.7722 12.3579 41.8563 12.5083 41.9366C12.6586 42.017 12.8108 42.0936 12.9649 42.1665C13.119 42.2394 13.2748 42.3085 13.4323 42.3738C13.5898 42.4389 13.7488 42.5002 13.9094 42.5577C14.0699 42.6151 14.2317 42.6685 14.3948 42.7181C14.558 42.7675 14.7222 42.8131 14.8876 42.8544C15.053 42.8958 15.2192 42.9332 15.3864 42.9665C15.5536 42.9997 15.7216 43.0289 15.8902 43.0538C16.0588 43.0789 16.228 43.0998 16.3976 43.1164C16.5673 43.1332 16.7372 43.1458 16.9075 43.1541C17.0778 43.1624 17.2482 43.1667 17.4186 43.1667H34.0854V32.7499H27.8353Z" fill="white" />
  <path d="M34.0853 43.1667C42.1395 43.1667 48.6688 36.6376 48.6688 28.5833C48.6688 20.5291 42.1395 14 34.0853 14C26.0312 14 19.502 20.5291 19.502 28.5833C19.502 36.6376 26.0312 43.1667 34.0853 43.1667Z" fill="white" />
  <defs>
    <linearGradient id="paint0_linear_16111_29883" x1="56" y1="32.6667" x2="40.8384" y2="22.9869" gradientUnits="userSpaceOnUse">
      <stop offset="0.12998" stop-color="#A033FF" />
      <stop offset="0.610381" stop-color="#0094FF" />
      <stop offset="1" stop-color="#FF4759" />
    </linearGradient>
    <linearGradient id="paint1_linear_16111_29883" x1="25.6667" y1="17.5" x2="8.16666" y2="52.5" gradientUnits="userSpaceOnUse">
      <stop stop-color="#FFD600" stop-opacity="0" />
      <stop offset="0.563347" stop-color="#FFC700" />
    </linearGradient>
  </defs>
</svg>