<svg width="56" height="56" viewBox="0 0 56 56" fill="none" xmlns="http://www.w3.org/2000/svg">
  <rect width="56" height="56" rx="18.4942" fill="white" />
  <rect width="56" height="56" rx="18.4942" fill="url(#paint0_linear_16111_29879)" />
  <rect width="56" height="56" rx="18.4942" fill="url(#paint1_linear_16111_29879)" />
  <rect width="56" height="56" rx="18.4942" fill="url(#paint2_linear_16111_29879)" />
  <path d="M27.7776 11.8691C37.7837 11.8691 45.8951 18.8745 45.8951 27.5161C45.8951 36.1576 37.7837 43.163 27.7776 43.163C25.7262 43.163 23.7543 42.8685 21.9157 42.3259C19.8612 43.9237 16.6746 45.2652 12.357 46.3483C12.1526 46.3995 11.9363 46.3709 11.7523 46.2682C11.3531 46.0455 11.2101 45.5413 11.4328 45.1421L11.7418 44.5813C13.1757 41.943 14.0703 39.7793 14.4257 38.09C11.4656 35.3058 9.66016 31.5931 9.66016 27.5161C9.66016 18.8745 17.7716 11.8691 27.7776 11.8691Z" fill="white" />
  <defs>
    <linearGradient id="paint0_linear_16111_29879" x1="56" y1="32.6667" x2="40.8384" y2="22.9869" gradientUnits="userSpaceOnUse">
      <stop offset="0.12998" stop-color="#A033FF" />
      <stop offset="0.610381" stop-color="#0094FF" />
      <stop offset="1" stop-color="#4FB500" />
    </linearGradient>
    <linearGradient id="paint1_linear_16111_29879" x1="25.6667" y1="17.5" x2="8.16666" y2="52.5" gradientUnits="userSpaceOnUse">
      <stop stop-color="#FFD600" stop-opacity="0" />
      <stop offset="0.563347" stop-color="#FFC700" />
    </linearGradient>
    <linearGradient id="paint2_linear_16111_29879" x1="30.3333" y1="32.6667" x2="50.1667" y2="53.6667" gradientUnits="userSpaceOnUse">
      <stop offset="0.0297327" stop-color="#FF3B30" stop-opacity="0" />
      <stop offset="0.842824" stop-color="#E73B2D" />
    </linearGradient>
  </defs>
</svg>