<svg width="56" height="56" viewBox="0 0 56 56" fill="none" xmlns="http://www.w3.org/2000/svg">
  <rect width="56" height="56" rx="16" fill="url(#paint0_linear_14205_5872)" />
  <rect width="56" height="56" rx="16" fill="url(#paint1_linear_14205_5872)" />
  <rect width="56" height="56" rx="16" fill="url(#paint2_linear_14205_5872)" />
  <rect width="56" height="56" rx="16" fill="url(#paint3_linear_14205_5872)" />
  <path fill-rule="evenodd" clip-rule="evenodd" d="M6.875 23.7906C6.875 22.1334 7.64831 20.5711 8.96605 19.5662L24.2784 7.88873C26.1811 6.43773 28.8189 6.43773 30.7216 7.88873L46.034 19.5662C47.3517 20.5711 48.125 22.1334 48.125 23.7906V41.7497C48.125 45.2706 45.2707 48.1248 41.7498 48.1248H13.2502C9.72926 48.1248 6.875 45.2706 6.875 41.7497V23.7906ZM11.4583 41.5058V23.4079L25.0619 32.9353C26.5256 33.9604 28.4744 33.9604 29.9381 32.9353L43.5417 23.4079V41.5058C43.5417 42.6794 42.5902 43.6308 41.4166 43.6308H13.5834C12.4098 43.6308 11.4583 42.6794 11.4583 41.5058ZM20.625 14.4199H34.375V17.7904H29.2188V27.9021H25.7812V17.7904H20.625V14.4199Z" fill="white" />
  <defs>
    <linearGradient id="paint0_linear_14205_5872" x1="28" y1="0" x2="28" y2="56" gradientUnits="userSpaceOnUse">
      <stop stop-color="#2C942B" />
      <stop offset="0.582834" stop-color="#D0CC01" />
      <stop offset="1" stop-color="#FEC303" />
    </linearGradient>
    <linearGradient id="paint1_linear_14205_5872" x1="3.20746e-07" y1="42.4058" x2="55.1884" y2="42.4058" gradientUnits="userSpaceOnUse">
      <stop stop-color="#FFCF01" stop-opacity="0" />
      <stop offset="0.57659" stop-color="#F05A2B" />
      <stop offset="1" stop-color="#E90B00" />
    </linearGradient>
    <linearGradient id="paint2_linear_14205_5872" x1="49.5072" y1="3.65217" x2="16.8406" y2="40.7826" gradientUnits="userSpaceOnUse">
      <stop offset="0.0103405" stop-color="#0394F7" />
      <stop offset="0.177129" stop-color="#0693F3" stop-opacity="0.88" />
      <stop offset="0.504933" stop-color="#0B92EE" stop-opacity="0.39" />
      <stop offset="1" stop-color="#E84232" stop-opacity="0" />
    </linearGradient>
    <linearGradient id="paint3_linear_14205_5872" x1="1.42029" y1="5.27536" x2="25.971" y2="33.0725" gradientUnits="userSpaceOnUse">
      <stop offset="0.0291436" stop-color="#2B9629" />
      <stop offset="0.449248" stop-color="#4BBC06" stop-opacity="0.25" />
      <stop offset="1" stop-color="#0792F7" stop-opacity="0" />
    </linearGradient>
  </defs>
</svg>
